<?xml version="1.0" encoding="UTF-8" standalone="no"?><!DOCTYPE svg PUBLIC "-//W3C//DTD SVG 1.1//EN" "http://www.w3.org/Graphics/SVG/1.1/DTD/svg11.dtd"><svg width="100%" height="100%" viewBox="0 0 323 319" version="1.1" xmlns="http://www.w3.org/2000/svg" xmlns:xlink="http://www.w3.org/1999/xlink" xml:space="preserve" xmlns:serif="http://www.serif.com/" style="fill-rule:evenodd;clip-rule:evenodd;stroke-linejoin:round;stroke-miterlimit:2;"><rect id="Logo" x="0" y="0" width="322.265" height="318.864" style="fill:none;"/><path d="M179.994,203.314c-7.214,2.757 -14.959,4.272 -22.855,4.272l-46.889,-59.629l48.889,-59.304c8.936,0.111 17.576,2.139 25.415,5.695l46.308,-58.037c1.643,-2.06 4.65,-2.398 6.709,-0.754l7.464,5.955c2.06,1.643 2.398,4.65 0.754,6.709l-45.137,56.57c4.606,4.089 8.591,8.831 11.762,14.077l68.611,-24.194c2.485,-0.876 5.214,0.43 6.09,2.915l3.175,9.005c0.876,2.485 -0.43,5.214 -2.915,6.09l-67.94,23.957c0.761,3.657 1.163,7.44 1.163,11.316c0,4.14 -0.476,8.177 -1.375,12.074l68.13,24.29c2.482,0.885 3.779,3.618 2.894,6.1l-3.206,8.994c-0.885,2.482 -3.618,3.779 -6.1,2.894l-69.152,-24.654c-3.931,6.185 -9.009,11.667 -14.889,16.193l45.517,56.247c1.658,2.048 1.34,5.057 -0.708,6.714l-7.422,6.006c-2.048,1.658 -5.057,1.34 -6.714,-0.708l-47.577,-58.792Zm-131.489,75.508c-1.326,-0 -2.598,-0.527 -3.536,-1.464c-0.938,-0.938 -1.464,-2.209 -1.464,-3.536l0,-243.406c-0,-1.326 0.527,-2.598 1.464,-3.536c0.938,-0.938 2.209,-1.464 3.536,-1.464l21.242,0c1.326,0 2.598,0.527 3.536,1.464c0.938,0.938 1.464,2.209 1.464,3.536l0,103.652l92.23,-106.918c0.95,-1.101 2.332,-1.734 3.786,-1.734l21.148,0c1.934,-0 3.694,1.115 4.521,2.864c0.826,1.748 0.57,3.817 -0.658,5.311l-90.857,110.561c-1.491,1.815 -1.518,4.423 -0.065,6.268l94.738,120.309c1.185,1.505 1.406,3.554 0.57,5.277c-0.836,1.723 -2.583,2.817 -4.498,2.817l-23.075,-0c-1.504,-0 -2.929,-0.677 -3.878,-1.844l-93.96,-115.486l-0,112.33c0,1.326 -0.527,2.598 -1.464,3.536c-0.938,0.938 -2.209,1.464 -3.536,1.464l-21.242,-0Z"/></svg>