<?xml version="1.0" encoding="UTF-8" standalone="no"?><!DOCTYPE svg PUBLIC "-//W3C//DTD SVG 1.1//EN" "http://www.w3.org/Graphics/SVG/1.1/DTD/svg11.dtd"><svg width="100%" height="100%" viewBox="0 0 739 693" version="1.1" xmlns="http://www.w3.org/2000/svg" xmlns:xlink="http://www.w3.org/1999/xlink" xml:space="preserve" xmlns:serif="http://www.serif.com/" style="fill-rule:evenodd;clip-rule:evenodd;stroke-linejoin:round;stroke-miterlimit:2;"><rect id="artboard-5" x="0" y="-0" width="738.116" height="692.378" style="fill:#a43700;"/><clipPath id="_clip1"><rect x="0" y="-0" width="738.116" height="692.378"/></clipPath><g clip-path="url(#_clip1)"><g><path d="M919.129,1.839l0,519.688c-0.589,0.068 -1.126,-0.541 -1.716,-0.472c-31.112,3.615 -75.819,46.243 -114.583,40.369c-0.942,-0.143 -11.801,-1.788 -11.396,-3.454c0.921,-3.785 2.345,-5.35 -1.478,-5.92c-13.792,-2.056 -18.036,-1.277 -28.332,-17.329c-16.821,-26.224 -13.751,-61.351 -73.37,-71.365c-7.477,-1.256 -15.966,0.405 -16.278,-2.872c-0.801,-8.396 4.622,-4.582 18.673,-12.36c1.118,-0.619 15.87,-8.785 11.434,-11.151c-5.093,-2.716 -23.519,-5.452 -33.939,-32.346c-2.681,-6.919 -10.729,1.427 -36.872,-3.846c-7.009,-1.414 3.047,-2.372 3.377,-2.404c9.885,-0.942 35.772,-11.788 35.818,-14.008c0.027,-1.282 -0.775,-1.675 -42.258,-1.391c-6.937,0.047 -1.778,-3.682 1.682,-12.701c4.769,-12.429 2.812,-21.24 5.879,-19.255c14.382,9.306 21.966,17.302 43.652,5.103c21.672,-12.191 35.213,-39.785 29.131,-40.144c-14.286,-0.844 -19.32,0.425 -38.617,-10.791c-6.863,-3.989 -1.015,8.076 -18.397,23.149c-12.493,10.834 -30.298,6.278 -30.453,7.941c-0.105,1.12 3.48,4.478 0.724,4.265c-17.249,-1.33 -17.723,-1.908 -17.726,-3.351c-0.03,-13.238 2.672,-12.731 3.684,-12.486c5.12,1.244 3.197,-1.842 2.955,-1.992c-2.342,-1.455 -30.259,-11.257 -32.908,-12.186c-6.592,-2.314 -0.775,-8.551 -6.437,-9.42c-7.917,-1.215 -11.077,1.073 -10.654,-4.602c0.161,-2.16 1.081,-2.612 26.81,-3.771c1.083,-0.049 17.826,0.432 12.643,-3.524c-1.416,-1.081 -16.617,-12.681 -18.045,-13.048c-3.425,-0.88 -19.804,2.117 -20.035,-1.158c-0.358,-5.088 2.086,-3.633 7.127,-4.406c5.8,-0.89 -3.62,-4.212 -3.79,-5.238c-0.122,-0.736 0.394,-0.529 3.884,-8.483c0.747,-1.701 41.173,-22.961 36.933,-27.434c-10.588,-11.17 -24.171,-17.3 -30.97,-61.469c-1.086,-7.054 -4.619,-2.057 -33.941,7.224c-23.676,7.494 -26.048,6.081 -25.682,9.87c2.262,23.405 10.216,36.623 6.51,35.961c-6.164,-1.102 -17.905,-8.206 -19.369,-9.092c-4.412,-2.67 -25.862,1.088 -31.062,1.778c-2.338,0.31 -27.401,3.637 -28.942,5.61c-3.276,4.195 29.508,9.808 8.616,9.707c-14.895,-0.072 -16.687,-0.106 -16.869,4.239c-0.073,1.749 1.115,9.3 -1.377,9.433c-2.647,0.141 -4.883,0.567 -3.297,-3.038c6.428,-14.616 1.067,-35.459 3.598,-38.266c1.326,-1.47 11.429,-12.673 -3.845,-24.446c-16.375,-12.622 -21.443,3.03 -29.637,2.473c-0.415,-0.028 -18.648,-4.27 -20.721,12.036c-0.207,1.626 0.891,4.076 -0.986,6.212c-4.48,5.097 -3.478,7.159 -6.107,6.447c-25.901,-7.015 -36.22,-15.552 -39.708,-15.526c-45.506,0.334 -106.059,12.502 -106.084,12.531c-0.879,1.023 3.094,5.079 1.424,9.803c-0.372,1.054 -8.529,7.973 -11.006,8.643c-1.931,0.523 -1.963,-0.263 -24.658,4.188c-2.661,0.522 -2.238,2.636 0.011,2.894c2.111,0.242 4.232,0.399 6.343,0.641c10.081,1.156 -5.644,4.71 -3.771,7.787c0.234,0.385 5.838,1.147 5.192,4.671c-1.295,7.07 -0.713,7.079 -1.94,14.105c-0.061,0.351 -8.123,5.74 -5.299,-2.536c2.551,-7.476 -3.427,-3.899 -17.743,-7.189c-14.557,-3.346 -22.868,-12.752 -24.591,-8.692c-5.117,12.054 -12.623,34.254 -45.073,43.743c-4.016,1.174 -7.008,1.272 -4.076,4.31c8.315,8.616 35.062,24.244 39.55,22.897c3.589,-1.077 12.41,-7.201 12.724,-3.441c0.812,9.747 -0.106,9.96 -0.909,10.035c-4.76,0.447 -14.329,-0.478 -15.402,3.824c-0.937,3.754 -2.283,2.517 -3.049,3.136c-2.676,2.16 10.098,8.648 -1.026,12.763c-3.349,1.239 -16.609,7.535 -10.536,8.369c1.035,0.142 2.09,0.007 3.134,0.05c4.985,0.205 4.997,0.119 5.389,0.301c1.261,0.586 -1.205,1.644 0.091,2.246c-1.371,4.734 -1.406,4.935 -7.289,9.046c-3.986,2.785 -0.467,3.283 -0.203,3.32c1.95,0.276 10.74,-0.506 10.448,1.53c-0.087,0.611 -2.888,5.115 1.164,5.712c3.11,0.458 4.89,-0.233 3.931,2.758c-2.325,7.253 -3.946,6.217 -11.3,8.02c-25.464,6.242 -32.101,6.457 -29.093,9.289c2.07,1.949 8.375,3.421 5.256,6.204c-5.994,5.348 -30.299,24.255 -32.606,20.239c-4.315,-7.515 -4.733,-26.851 -5.917,-27.313c-3.039,-1.187 -1.827,4.206 -38.541,13.342c-4.33,1.077 -7.621,20.941 -3.988,30.257c0.289,0.741 0.652,1.451 0.944,2.19c3.097,7.828 -14.925,-2.673 -59.829,24.052c-14.489,8.623 -45.836,34.94 -57.317,75.552c-6.825,24.143 -2.311,29.147 -9.333,28.492c-23.329,-2.176 -25.508,-18.54 -73.746,-12.527c-0.699,-2.4 -0.576,-2.393 -0.577,-6.24c-0.012,-42.69 -0.137,-507.677 -0.003,-533.629c0.017,-3.291 1.832,-2.599 27.128,-2.597c1044.373,0.065 1044.331,-0.947 1068.842,0.464Z" style="fill:#fdfdfd;"/><path d="M919.129,521.527l0,2.143c-58.31,16.006 -72.535,44.06 -113.071,41.143c-10.792,-0.777 -16.062,-5.116 -17.804,-0.281c-9.113,25.291 -3.683,37.878 -1.408,38.007c8.811,0.498 65.337,-5.674 74.486,46.569c4.566,26.073 -10.064,26.306 -12.393,26.343c-0.465,0.007 -880.585,0.137 -882.872,-0.069c-22.375,-2.022 -14.971,-58.225 40.731,-66.621c36.162,-5.451 44.742,2.055 44.323,-7.985c-0.095,-2.267 3.107,-4.407 0.214,-9.327c-1.294,-2.201 -2.051,-0.293 -30.876,9.914c-9.421,3.336 -5.875,-3.249 -5.001,-6.941c8.481,-35.807 -11.563,-60.915 -10.145,-64.483c1.496,-3.765 5.056,1.281 44.591,-23.999c4.684,-2.995 6.151,-5.114 8.857,-0.228c16.832,30.4 12.066,41.646 16.492,41.978c15.812,1.187 16.15,-0.198 16.274,-1.5c0.437,-4.571 -6.774,-0.623 -9.411,-4.561c-14.158,-21.141 -14.164,-22.553 -12.249,-23.455c4.157,-1.959 4.612,0.595 34.442,-4.813c2.626,-0.476 12.483,-0.169 10.657,-2.558c-0.279,-0.365 -6.338,0.548 -7.167,-2.221c-1.682,-5.621 -1.269,-5.741 -4.299,-10.834c-1.427,-2.399 1.635,-6.367 1.312,-10.474c-0.047,-0.599 -2.557,-14.579 3.67,-15.393c13.837,-1.807 19.23,-1.955 18.404,-5.055c-0.668,-2.505 -33.571,-2.303 -55.718,7.862c-33.058,15.172 -29.209,34.374 -54.776,36.349c-18.471,1.427 -18.756,0.085 -36.097,6.695c-6.464,2.464 22.946,6.816 23.064,9.19c0.203,4.078 -28.004,31.947 -35.266,30.215c-14.867,-3.545 -29.514,-13.605 -31.195,-12.397c-15.658,11.252 -24.626,22.187 -58.828,9.122c-13.017,-4.972 -27.647,-12.149 -54.364,-6.475c0.012,-1.182 0.024,-2.364 0.036,-3.547c48.239,-6.013 50.417,10.351 73.746,12.527c7.022,0.655 2.509,-4.349 9.333,-28.492c11.48,-40.612 42.827,-66.929 57.317,-75.552c44.904,-26.725 62.925,-16.225 59.829,-24.052c-0.292,-0.739 -0.656,-1.449 -0.944,-2.19c-3.633,-9.316 -0.342,-29.179 3.988,-30.257c36.714,-9.136 35.502,-14.529 38.541,-13.342c1.184,0.462 1.602,19.799 5.917,27.313c2.306,4.016 26.612,-14.891 32.606,-20.239c3.119,-2.783 -3.186,-4.255 -5.256,-6.204c-3.008,-2.832 3.628,-3.047 29.093,-9.289c7.354,-1.803 8.974,-0.766 11.3,-8.02c0.959,-2.991 -0.821,-2.3 -3.931,-2.758c-4.053,-0.596 -1.251,-5.101 -1.164,-5.712c0.291,-2.036 -8.498,-1.254 -10.448,-1.53c-0.263,-0.037 -3.782,-0.535 0.203,-3.32c5.883,-4.11 5.918,-4.312 7.289,-9.046c-1.296,-0.602 1.17,-1.66 -0.091,-2.246c-0.392,-0.182 -0.404,-0.096 -5.389,-0.301c-1.044,-0.043 -2.099,0.092 -3.134,-0.05c-6.074,-0.835 7.187,-7.13 10.536,-8.369c11.124,-4.115 -1.65,-10.603 1.026,-12.763c0.767,-0.619 2.112,0.618 3.049,-3.136c1.074,-4.302 10.642,-3.377 15.402,-3.824c0.803,-0.075 1.72,-0.288 0.909,-10.035c-0.313,-3.761 -9.135,2.363 -12.724,3.441c-4.488,1.347 -31.235,-14.281 -39.55,-22.897c-2.932,-3.038 0.06,-3.135 4.076,-4.31c32.449,-9.49 39.956,-31.689 45.073,-43.743c1.723,-4.06 10.034,5.346 24.591,8.692c14.316,3.291 20.294,-0.286 17.743,7.189c-2.824,8.276 5.238,2.887 5.299,2.536c1.227,-7.026 0.645,-7.036 1.94,-14.105c0.646,-3.524 -4.958,-4.286 -5.192,-4.671c-1.873,-3.077 13.853,-6.631 3.771,-7.787c-2.111,-0.242 -4.232,-0.399 -6.343,-0.641c-2.249,-0.258 -2.671,-2.372 -0.011,-2.894c22.695,-4.451 22.727,-3.665 24.658,-4.188c2.477,-0.67 10.634,-7.589 11.006,-8.643c1.67,-4.724 -2.303,-8.78 -1.424,-9.803c0.025,-0.029 60.577,-12.197 106.084,-12.531c3.488,-0.026 13.807,8.512 39.708,15.526c2.629,0.712 1.627,-1.351 6.107,-6.447c1.877,-2.136 0.779,-4.586 0.986,-6.212c2.073,-16.305 20.306,-12.064 20.721,-12.036c8.194,0.557 13.262,-15.095 29.637,-2.473c15.274,11.773 5.171,22.976 3.845,24.446c-2.532,2.807 2.83,23.65 -3.598,38.266c-1.586,3.605 0.65,3.179 3.297,3.038c2.492,-0.133 1.304,-7.684 1.377,-9.433c0.182,-4.345 1.974,-4.311 16.869,-4.239c20.892,0.101 -11.892,-5.512 -8.616,-9.707c1.541,-1.973 26.604,-5.3 28.942,-5.61c5.2,-0.69 26.649,-4.448 31.062,-1.778c1.464,0.886 13.205,7.991 19.369,9.092c3.706,0.662 -4.248,-12.555 -6.51,-35.961c-0.366,-3.79 2.006,-2.376 25.682,-9.87c29.323,-9.281 32.855,-14.278 33.941,-7.224c6.799,44.169 20.382,50.299 30.97,61.469c4.24,4.473 -36.186,25.733 -36.933,27.434c-3.49,7.953 -4.006,7.746 -3.884,8.483c0.171,1.026 9.59,4.349 3.79,5.238c-5.041,0.773 -7.485,-0.682 -7.127,4.406c0.23,3.275 16.61,0.278 20.035,1.158c1.429,0.367 16.629,11.967 18.045,13.048c5.184,3.956 -11.56,3.476 -12.643,3.524c-25.729,1.159 -26.648,1.611 -26.81,3.771c-0.424,5.674 2.737,3.387 10.654,4.602c5.663,0.869 -0.155,7.105 6.437,9.42c2.649,0.93 30.566,10.731 32.908,12.186c0.242,0.15 2.165,3.236 -2.955,1.992c-1.012,-0.246 -3.714,-0.753 -3.684,12.486c0.003,1.443 0.477,2.021 17.726,3.351c2.756,0.212 -0.829,-3.146 -0.724,-4.265c0.155,-1.663 17.96,2.893 30.453,-7.941c17.382,-15.073 11.534,-27.138 18.397,-23.149c19.297,11.215 24.331,9.947 38.617,10.791c6.083,0.359 -7.458,27.953 -29.131,40.144c-21.686,12.198 -29.27,4.203 -43.652,-5.103c-3.068,-1.985 -1.11,6.826 -5.879,19.255c-3.46,9.018 -8.619,12.748 -1.682,12.701c41.483,-0.284 42.285,0.11 42.258,1.391c-0.046,2.22 -25.933,13.066 -35.818,14.008c-0.33,0.031 -10.386,0.99 -3.377,2.404c26.143,5.273 34.191,-3.073 36.872,3.846c10.42,26.894 28.846,29.63 33.939,32.346c4.436,2.365 -10.316,10.532 -11.434,11.151c-14.051,7.779 -19.474,3.964 -18.673,12.36c0.312,3.277 8.802,1.616 16.278,2.872c59.619,10.014 56.549,45.141 73.37,71.365c10.296,16.052 14.54,15.273 28.332,17.329c3.823,0.57 2.398,2.135 1.478,5.92c-0.405,1.666 10.454,3.311 11.396,3.454c38.764,5.874 83.471,-36.753 114.583,-40.369c0.589,-0.068 1.126,0.541 1.716,0.472Z" style="fill:#101010;"/><path d="M919.129,523.67l0,226.091c-2.422,0.136 -2.298,0.27 -4.821,0.27c-87.095,0.012 -1065.731,0.147 -1088.683,0.003c-2.135,-0.013 -2.46,-0.245 -2.471,-2.404c-0.085,-16.019 -1.033,-194.302 0.549,-200.243c26.717,-5.674 41.348,1.503 54.364,6.475c34.201,13.064 43.17,2.13 58.828,-9.122c1.681,-1.208 16.328,8.851 31.195,12.397c7.262,1.732 35.469,-26.136 35.266,-30.215c-0.118,-2.375 -29.528,-6.726 -23.064,-9.19c17.341,-6.61 17.626,-5.268 36.097,-6.695c25.566,-1.975 21.718,-21.177 54.776,-36.349c22.147,-10.164 55.051,-10.366 55.718,-7.862c0.826,3.1 -4.566,3.248 -18.404,5.055c-6.227,0.813 -3.717,14.794 -3.67,15.393c0.324,4.108 -2.739,8.076 -1.312,10.474c3.03,5.093 2.617,5.213 4.299,10.834c0.829,2.769 6.888,1.856 7.167,2.221c1.827,2.389 -8.03,2.082 -10.657,2.558c-29.829,5.408 -30.285,2.854 -34.442,4.813c-1.915,0.903 -1.909,2.315 12.249,23.455c2.637,3.938 9.849,-0.01 9.411,4.561c-0.125,1.302 -0.462,2.687 -16.274,1.5c-4.427,-0.332 0.34,-11.579 -16.492,-41.978c-2.705,-4.886 -4.173,-2.767 -8.857,0.228c-39.535,25.28 -43.094,20.234 -44.591,23.999c-1.418,3.568 18.626,28.676 10.145,64.483c-0.874,3.692 -4.42,10.277 5.001,6.941c28.825,-10.207 29.582,-12.115 30.876,-9.914c2.894,4.92 -0.308,7.06 -0.214,9.327c0.419,10.04 -8.16,2.534 -44.323,7.985c-55.702,8.396 -63.106,64.599 -40.731,66.621c2.287,0.207 882.407,0.077 882.872,0.069c2.329,-0.037 16.959,-0.269 12.393,-26.343c-9.148,-52.243 -65.675,-46.071 -74.486,-46.569c-2.275,-0.129 -7.705,-12.715 1.408,-38.007c1.742,-4.835 7.012,-0.496 17.804,0.281c40.535,2.917 54.761,-25.137 113.071,-41.143Z" style="fill:#fdfdfd;"/><path d="M581.026,620.682c15.116,-1.732 -9.737,-7.066 -8.523,-9.144c0.379,-0.649 94.792,0.303 115.714,-0.07c3.806,-0.068 1.686,-5.104 5.3,-4.004c33.465,10.187 58.102,-0.272 63.251,0.99c2.271,0.557 19.993,4.902 29.029,3.444c3.925,-0.633 -1.068,-6.033 2.127,-6.303c29.58,-2.493 46.573,8.429 50.014,10.641c22.178,14.255 29.349,55.392 11,56.049c-5.824,0.209 -649.636,0.028 -706.126,0.012c-177.679,-0.05 -177.916,0.258 -180.739,-1.278c-8.379,-4.559 -8.822,-41.147 30.612,-55.556c18.81,-6.873 53.766,-6.188 53.77,-6.184c0.959,0.865 -1.723,4.854 2.066,4.639c25.469,-1.447 25.526,-0.785 50.326,5.273c5.491,1.341 10.822,-6.252 15.035,-6.151c22.508,0.543 22.478,0.541 22.509,0.544c36.209,3.431 36.193,2.584 64.286,2.707c64.359,0.283 75.045,-0.736 76.887,0.946c1.66,1.516 3.228,3.129 4.888,4.644c1.909,1.742 2.421,5.305 20.079,1.778c12.14,-2.425 12.198,-1.068 24.579,-1.093c6.676,-0.013 1.347,-6.506 4.32,-6.574c26.085,-0.595 54.176,0.126 58.886,0.247c3.421,0.088 1.881,3.811 3.168,5.015c1.151,1.076 54.181,1.194 55.766,-0.1c4.723,-3.854 -5.104,-7.361 -5.102,-7.497c0.01,-0.974 50.856,-0.331 51.269,-0.158c7.475,3.122 6.225,15.674 85.608,7.185Z" style="fill:#fdfdfd;"/><path d="M398.467,580.416c1.509,-16.149 4.456,-56.227 7.447,-81.438c0.271,-2.282 2.478,-3.21 -25.811,-62.3c-2.265,-4.73 7.557,-20.556 3.781,-21.155c-4.563,-0.725 -18.466,56.9 -19.686,61.956c-10.352,42.906 -17.818,46.836 -46.396,96.755c-3.64,6.358 -4.203,-3.121 -6.749,-5.569c-2.314,-2.224 -23.321,4.064 -22.067,0.057c1.797,-5.741 8.658,-21.628 9.461,-23.488c1.533,-3.549 2.92,-1.278 6.165,-1.278c6.871,0 9.974,-9.618 10.341,-10.753c18.889,-58.543 18.97,-58.619 18.765,-60.982c-0.685,-7.877 -7.357,-8.843 -8.819,-9.507c-1.046,-0.475 -1.251,-0.867 0.968,-30.144c0.251,-3.308 4.99,-2.07 5.532,-2.054c19.282,0.557 21.519,-6.662 31.392,-39.622c1.28,-4.273 3.24,-1.381 28.625,-1.97c15.411,-0.358 19.813,-4.962 25.366,9.503c4.684,12.203 21.453,25.985 20.926,29.904c-0.238,1.77 -0.875,1.369 -5.318,4.615c-2.754,2.012 1.182,13.033 1.353,13.719c3.48,13.911 3.531,13.833 7.097,27.684c1.835,7.127 6.981,9.592 -12.653,92.259c-5.237,22.051 -5.054,26.066 -8.925,26.142c-9.737,0.193 -9.626,-0.721 -19.342,-1.163c-3.24,-0.147 -1.797,-6.727 -1.451,-11.172Z" style="fill:#a43700;"/><path d="M376.436,247.632c1.058,-0.007 2.112,-0.148 3.169,-0.156c4.129,-0.028 11.858,23.871 -3.842,84.542c-0.357,1.38 -9.127,5.13 -9.964,5.488c-9.941,4.251 0.684,8.767 3.168,13.614c1.184,2.31 -9.926,45.202 -16.834,62.327c-2.77,6.867 -1.454,21.321 -52.919,9.615c-5.543,-1.261 -1.909,-12.134 -1.158,-15.167c0.37,-1.495 1.998,-1.015 4.108,-8.605c4.961,-17.844 14.959,-47.495 17.163,-53.587c3.299,-9.119 39.39,-48.703 40.855,-51.413c0.131,-0.242 0.221,-4.423 -3.429,-0.245c-34.601,39.603 -33.247,40.642 -36.321,44.017c-2.671,2.932 -6.782,-7.062 -8.244,-7.481c-4.225,-1.21 1.022,5.965 1.33,6.386c3.56,4.868 3.754,5.233 1.787,10.964c-16.834,49.035 -15.412,49.423 -17.017,53.628c-1.07,2.802 -4.355,1.672 -23.775,-1.789c-4.279,-0.763 -2.547,-2.446 -1.999,-6.822c8.883,-70.964 26.623,-88.862 34.17,-98.642c33.252,-43.09 41.607,-43.686 69.753,-46.677Z" style="fill:#fdfdfd;"/><path d="M120.295,461.53l-0.104,0.943c-4.913,0.235 -45.158,-1.032 -71.313,23.025c-17.767,16.342 -15.97,21.856 -40.015,22.94c-20.323,0.916 -32.372,9.494 -35.469,7.976c-11.283,-5.531 -19.143,-13.351 -20.303,-14.055c-3.528,-2.143 -8.743,11.983 -30.255,25.066c-8.822,5.365 0.438,6.195 10.663,13.825c4.506,3.363 -21.803,16.646 -27.413,15.134c-4.546,-1.225 4.747,-37.514 13.593,-52.146c10.331,-17.087 31.645,-54.926 94.554,-68.418c8.187,-1.756 10.107,-5.714 14.483,1.347c1.804,2.911 12.978,20.945 26.517,33.612c2.706,2.532 34.436,-23.292 38.306,-22.166c12.614,3.671 24.767,11.618 26.756,12.918Z" style="fill:#fdfdfd;"/><path d="M508.045,385.117c0.783,0.001 9.788,0.012 9.788,0.012c4.057,-0.213 3.143,-17.368 2.193,-17.975c-2.716,-1.737 -1.679,13.824 -3.232,15.105c-1.371,1.131 -54.253,-0.88 -58.967,-1.06c-5.044,-0.192 0.435,-1.927 6.127,-5.862c5.879,-4.064 -1.401,-3.846 -19.186,-14.169c-7.905,-4.589 -10.086,-4.122 -10.001,-13.211c0.032,-3.432 2.178,-1.716 34.861,-2.175c5.914,-0.083 11.64,4.414 19.195,1.894c11.248,-3.752 26.992,0.625 29.056,-1.853c3.129,-3.758 -18.419,-1.637 -19.313,-2.177c-1.134,-0.685 -0.401,-1.515 3.385,-3.995c2.624,-1.718 39.505,3.828 50.235,5.749c4.445,0.795 9.093,-3.577 43.884,-3.692c35.18,-0.116 35.184,4.45 35.098,7.317c-0.404,13.537 -6.225,25.798 -6.566,26.575c-2.676,6.105 -2.497,7.49 -9.249,7.54c-21.869,0.161 -22.726,0.682 -24.216,-2.185c-3.092,-5.95 -3.037,-5.903 -12.078,-20.241c-1.91,-3.028 -9.676,-1.526 -11.943,-1.457c-29.697,0.906 -58.752,-10.135 -50.913,-3.211c8.181,7.226 19.63,23.27 23.905,32.683c1.107,2.438 -6.893,1.752 -15.825,1.737c-11.346,-0.019 -13.028,1.616 -16.58,-3.859l0.344,-1.488Z" style="fill:#fcfbfc;"/><path d="M440.304,412.276c-0.24,-2.156 -0.602,-4.297 -0.841,-6.453c-1.208,-10.864 -1.164,-10.833 -1.272,-11.774c-0.812,-7.087 13.037,-6.564 14.293,-6.517c2.742,0.103 2.709,-0.211 34.298,0.603c15.841,0.408 17.23,-1.41 20.871,3.353c2.808,3.674 26.9,1.135 33.67,1.815c1.758,0.176 6.037,12.185 7.492,15.748c2.594,6.353 -2.662,1.377 -8.685,-1.793c-6.193,-3.259 -6.218,-3.021 -12.37,-6.232c-6.686,-3.489 -6.828,-4.043 -40.983,-3.359c-10.425,0.209 -0.092,4.421 8.168,10.747c3.839,2.94 0.389,17.803 1.712,19.743c2.49,3.653 2.576,-6.738 2.581,-7.362c0.018,-2.17 -0.039,-4.342 0.027,-6.511c0.116,-3.794 7.258,3.92 7.807,4.437c4.629,4.35 4.867,5.737 10.927,3.585c21.86,-7.762 52.344,-9.102 52.391,-9.089c2.452,0.701 -2.683,21.115 3.026,15.951c0.748,-0.677 7.353,-0.473 13.006,-0.477c38.842,-0.029 39.348,-0.068 40.129,1.437c5.86,11.294 6.881,10.886 6.588,11.937c-0.41,1.468 -34.932,-2.447 -40.287,-2.42c-4.659,0.024 -0.092,5.781 -1.021,6.926c-0.295,0.364 -6.963,0.393 -7.569,0.395c-2.802,0.012 -2.466,-0.926 -11.051,-8.565c-2.299,-2.046 -8.575,1.934 -10.375,1.882c-14.336,-0.415 -14.284,-0.519 -35.352,-0.552c-45.655,-0.072 -45.541,-0.716 -91.122,-3.806c-1.688,-0.114 -1.995,-0.956 -0.677,-1.908c7.453,-5.38 6.377,-6.887 4.616,-21.742Z" style="fill:#fcfcfc;"/><path d="M418.774,303.991c0.813,-27.052 0.08,-26.954 -2.12,-44.993c-0.216,-1.773 -0.101,-2.704 1.448,-1.89c7.838,4.117 56.8,44.598 61.639,48.599c2.307,1.908 -3.545,12.629 -0.486,13.341c3.057,0.711 1.737,-1.327 3.151,-7.556c1.319,-5.81 6.102,-6.995 8.403,-8.866c28.186,-22.91 29.474,-27.197 32.396,-24.336c15.203,14.881 15.675,14.731 15.666,16.062c-0.019,2.837 -15.769,20.361 -17.266,22.026c-33.568,37.349 -41.081,29.075 -47.851,26.592c-11.428,-4.192 -37.94,-22.67 -38.324,-22.987c-1.838,-1.52 -0.238,-21.402 -0.76,-24.711c-0.045,-0.287 -2.699,-3.306 -2.817,2.3c-0.971,46.083 0.425,51.616 0.045,53.504c-0.253,1.256 -1.618,1.555 -13.268,-8.964c-2.263,-2.044 -3.178,-2.869 0.142,-38.119Z" style="fill:#fcfcfc;"/><path d="M371.169,139.133c-16.604,12.045 -49.213,30.83 -54.616,27.464c-31.438,-19.583 -51.955,-66.192 -48.335,-70.43c3.531,-4.134 51.59,-26.451 54.13,-22.188c3.163,5.309 8.222,39.845 44.523,59.433c4.153,2.241 7.344,2.124 4.299,5.721Z" style="fill:#0b0b0b;"/><path d="M600.355,533.307c0.816,7.026 -0.153,7.046 0.862,14.022c-0.177,7.749 3.077,17.869 4.62,15.019c1.812,-3.345 -3.756,-9.629 -1.146,-14.863c1.941,0.023 19.447,1.217 14.91,-2.327c-1.273,-0.995 -16.024,0.953 -16.137,-2.183c-0.077,-2.146 -0.014,-4.295 -0.028,-6.442c-0.007,-1.072 -0.573,-1.284 1.211,-3.142c69.225,0.174 76.158,1.531 71.901,-2.342c-1.087,-0.989 -60.18,-0.115 -76.201,-0.516c-8.208,-0.205 -12.376,2.388 -11.714,-5.777c0.286,-3.528 14.569,0.511 15.781,-1.263c1.127,-1.65 -5.639,-4.503 -0.983,-4.482c62.567,0.29 62.842,0.014 67.564,2.653c0.331,0.185 30.89,17.968 31.079,18.154c2.425,2.392 -1.913,24.883 -3.039,26.79c-0.92,1.559 -1.39,0.674 -22.603,1.067c-12.775,0.237 -16.59,-7.591 -17.581,-3.474c-0.293,1.216 0.513,1.189 0.151,2.32c-0.857,2.679 -34.53,0.335 -37.013,1.471c-8.148,3.727 22.079,2.226 36.264,2.446c2.606,0.04 3.99,3.862 1.112,3.989c-0.875,0.039 -44.433,-0.022 -48.297,-0.028c-5.248,-0.007 -1.932,-5.365 -4.204,-9.046c-2.432,-3.94 -1.165,7.931 -2.187,8.726c-1.223,0.952 -1.364,0.396 -19.367,0.25c-3.145,-0.025 -0.544,-3.241 -0.435,-5.683c0.048,-1.077 -0.067,-2.159 0.014,-3.235c0.23,-3.06 4.463,-1.244 5.35,-2.478c1.381,-1.92 -4.377,-2.145 -4.798,-2.162c-5.416,-0.212 4.894,-5.05 -0.512,-12.142c-2.682,-3.518 0.279,-3.48 4.665,-3.949c5.796,-0.62 -3.854,-12.68 0.054,-12.402c9.913,0.704 9.85,0.968 10.709,1.028Z" style="fill:#fbfbfb;"/><path d="M572.062,84.292c-0.921,6.336 0.089,9.703 -6.101,7.954c-17.996,-5.085 -24.658,-7.906 -52.375,-10.494c-5.779,-0.54 -1.419,-11.565 0.625,-18.949c7.677,-27.739 28.678,-54.615 32.616,-55.185c12.745,-1.844 58.53,9.607 54.401,15.518c-5.757,8.242 -15.741,9.774 -26.672,48.327c-0.7,2.468 -2.165,11.157 -2.494,12.829Z" style="fill:#0e0e0e;"/><path d="M323.26,85.258c3.953,9.974 11.624,31.05 35.664,46.759c3.616,2.363 3.662,2.112 7.487,4.285c3.372,1.916 -3.305,5.005 -8.953,8.575c-3.974,2.511 -34.822,21.32 -40.004,18.792c-3.982,-1.943 -21.666,-16.574 -31.691,-32.465c-7.173,-11.37 -16.668,-31.491 -14.194,-33.798c3.105,-2.895 47.63,-24.752 49.297,-19.583c0.192,0.595 0.177,0.551 2.394,7.435Z" style="fill:#fbfafb;"/><path d="M527.268,221.589c-0.984,-2.875 -12.273,-35.86 -7.147,-37.3c25.451,-7.149 25.166,-7.75 50.321,-15.999c4.64,-1.522 0.204,19.063 18.327,46.649c7.713,11.74 15.631,14.911 13.305,16.882c-13.591,11.52 -40.085,24.875 -43.747,26.72c-15.267,7.695 3.571,-4.532 4.011,-9.225c0.882,-9.404 -14.939,2.388 -16.685,2.826c-4.125,1.037 -17.212,-27.954 -18.385,-30.554Z" style="fill:#fafafa;"/><path d="M165.286,613.073c-1.458,-0.091 -11.644,-0.726 -18.201,-1.427c-22.471,-2.406 -29.114,-0.536 -29.908,-1.282c-1.135,-1.066 0.093,-1.112 2.816,-3.475c19.171,-16.634 17.355,-26.002 22.848,-26.006c14.952,-0.011 16.862,-0.227 18.191,-0.262c4.15,-0.108 6.958,3.319 9.897,4.698c3.361,1.577 49.905,-8.516 55.477,-8.369c1.973,0.052 1.918,0.74 24.63,1.377c3.025,0.085 3.489,4.008 4.077,5.439c8.622,20.989 21.166,29.602 16.246,29.59c-79.801,-0.189 -79.726,0.331 -106.073,-0.283Z" style="fill:#fcfcfc;"/><path d="M219.169,444.499c0.826,-2.243 0.718,-2.177 1.578,-4.512c0.415,-1.126 0.457,-1.03 0.895,-2.206c5.735,-15.388 10.982,-10.249 26.152,-4.055c4.83,1.972 6.724,1.086 6.618,6.359c-0.011,0.526 6.113,8.57 10.419,2.04c1.492,-2.262 38.323,15.561 55.775,21.62c1.477,0.513 -1.479,2.369 -1.683,2.497c-4.275,2.684 -7.013,14.059 -12.247,28.471c-0.398,1.095 -3.744,10.307 -12.9,6.755c-26.767,-10.384 -27.76,-10.685 -27.384,-13.083c0.709,-4.513 -0.909,-4.462 -13.258,-9.598c-5.074,-2.11 -5.264,2.031 -6.31,2.253c-1.776,0.378 -25.831,-10.784 -28.039,-11.808c-9.083,-4.215 -4.132,-11.527 0.384,-24.733Z" style="fill:#fdfdfd;"/><path d="M497.385,529.511c0.838,-9.391 -0.528,-20.043 2.168,-20.153c2.749,-0.113 2.72,0.213 34.381,1.07c3.179,0.086 16.416,17.576 19.372,14.412c1.338,-1.432 2.573,-5.846 5.26,-5.524c25.548,3.064 26.477,2.087 27.168,4.174c0.325,0.983 -0.538,8.799 0.593,11.997c1.492,4.22 4.605,6.462 0.124,6.657c-2.401,0.104 -70.745,0.07 -85.749,0.17c-3.319,0.022 -4.202,-0.416 -3.5,-3.723c0.62,-2.92 23.076,0.16 17.153,-3.822c-0.764,-0.514 -17.836,-0.678 -19.122,0.587c-1.513,1.488 0.866,6.939 -3.062,6.986c-4.304,0.051 -51.273,0.613 -53.798,0.064c-2.592,-0.563 0.232,-6.994 3.673,-26.176c0.468,-2.61 0.296,-3.366 2.935,-3.328c35.728,0.509 36.999,2.22 41.176,-2.779c6.743,-8.069 7.038,-8.27 11.33,-8.197c26.8,0.458 27.443,-0.76 31.703,2.917c0.193,0.166 3.75,3.236 0.544,3.136c-31.949,-0.995 -33.746,-2.653 -34.299,0.706c-0.766,4.651 -0.156,20.701 -0.187,20.91c-25.654,0.931 4.914,2.293 5.381,2.28c0.122,-0.003 1.272,-0.034 1.427,-0.538c0.843,-2.74 -1.096,-1.494 -4.67,-1.826Z" style="fill:#fcfcfc;"/><path d="M710.636,108.324c12.406,1.812 12.705,1.74 13.067,2.745c1.529,4.245 -17.415,45.633 -48.521,61.876c-2.6,1.358 -3.554,1.856 -33.897,-13.964c-17.108,-8.92 -17.018,-10.01 -16.508,-11.538c0.722,-2.165 27.738,-10.73 42.744,-45.039c0.196,-0.449 2.163,-4.945 3.553,-4.984c3.002,-0.085 11.102,5.384 39.562,10.904Z" style="fill:#0c0c0c;"/><path d="M569.663,81.211c-0.946,6.547 -0.932,8.879 -3.496,8.11c-42.084,-12.628 -43.03,-8.111 -51.504,-10.41c-3.22,-0.874 5.103,-28.212 15.428,-45.72c4.199,-7.119 14.949,-22.248 17.769,-22.72c9.175,-1.536 50.969,8.002 49.265,12.793c-0.639,1.796 -3.146,-0.031 -14.373,19.011c-8.394,14.238 -12.475,35.708 -13.089,38.936Z" style="fill:#f9f9f9;"/><path d="M112.935,516.343c25.693,-15.972 35.983,-41.682 37.754,-46.108c1.216,-3.038 10.035,3.984 17.749,7.542c25.246,11.647 25.97,10.187 27.728,11.839c2.315,2.174 -16.436,42.038 -54.564,59.491c-6.675,3.055 -6.976,0.998 -20.395,-6.929c-2.067,-1.221 -28.481,-16.823 -23.502,-18.659c7.926,-2.922 7.978,-2.688 15.229,-7.176Z" style="fill:#fafafa;"/><path d="M567.109,502.214c-13.97,13.822 -13.818,21.62 -16.828,18.915c-12.931,-11.623 -24.384,-22.787 -26.462,-24.813c-3.506,-3.417 -11.462,-7.319 -8.868,-11.015c16.94,-24.141 33.308,-33.533 46.72,-41.129c8.366,-4.738 9.977,-3.34 10.641,-2.763c11.455,9.944 34.515,34.034 32.955,35.858c-1.693,1.98 -17.226,2.702 -38.157,24.948Z" style="fill:#fafafa;"/><path d="M919.129,1.839c-24.511,-1.411 -24.469,-0.399 -1068.842,-0.464c-25.295,-0.002 -27.111,-0.694 -27.128,2.597c-0.134,25.952 -0.008,490.938 0.003,533.629c0.001,3.847 -0.122,3.84 0.577,6.24c-0.012,1.182 -0.024,2.364 -0.036,3.547c-1.582,5.941 -0.635,184.223 -0.549,200.243c0.011,2.159 0.336,2.391 2.471,2.404c22.952,0.144 1001.588,0.009 1088.683,-0.003c2.522,-0 2.399,-0.134 4.821,-0.27c-0.492,0.211 0.492,1.395 0,1.606l-1070.985,0c-24.277,0 -24.525,1.195 -26.252,0l-0,-724.883c0,-24.239 -0.996,-24.403 0,-26.252l1090.273,-0c2.321,0 4.702,-0.522 6.964,0c0.522,0.12 -0.522,1.487 0,1.607Z" style="fill:#3f3f3f;fill-opacity:0.11;"/><path d="M227.445,314.751c25.636,15.081 26.581,13.175 37.106,18.701c3.098,1.626 -14.69,36.872 -41.133,52.378c-1.869,1.096 -5.234,3.994 -7.727,2.791c-3.345,-1.614 -26.189,-12.638 -39.128,-24.987c-3.475,-3.316 7.158,-0.646 26.308,-25.297c16.91,-21.767 12.659,-30.604 18.306,-27.098c0.488,0.303 2.677,1.661 6.267,3.512Z" style="fill:#f9f9fa;"/><path d="M506.074,255.306c5.746,-0.035 1.267,-2.62 1.041,-2.651c-5.046,-0.684 -7.27,-0.727 -5.514,-5.543c0.594,-1.63 1.327,-0.663 34.507,2.799c0.576,0.06 7.098,0.741 5.384,4.844c-0.358,0.856 -1.566,0.028 -6.71,9.458c-2.123,3.892 -27.098,-4.063 -25.812,1.388c0.342,1.45 0.9,1.163 18.5,2.122c4.752,0.259 5.359,-0.333 5.555,0.933c0.289,1.869 -1.839,-0.332 -5.175,2.505c-0.95,0.807 -1.785,1.742 -2.712,2.575c-2.258,2.026 -3.23,-0.911 -6.293,1.248c-1.176,0.829 -2.847,2.007 -17.97,0.729c-2.641,-0.223 1.446,-13.596 -0.586,-14.268c-1.655,-0.548 -1.958,1.559 -1.988,1.769c-0.31,2.164 -0.516,4.341 -0.787,6.51c-0.515,4.124 0.957,6.166 -3.242,6.026c-32.302,-1.081 -34.838,-0.66 -33.31,1.527c1.35,1.931 31.299,-0.751 31.757,2.249c0.991,6.49 -2.559,4.531 -9.167,4.477c-23.976,-0.196 -24.634,1.045 -29.646,-2.971c-10.614,-8.505 -11.587,-8.123 -11.096,-9.164c0.876,-1.857 53.894,1.394 34.258,-2.825c-3.069,-0.659 -27.548,-0.668 -29.944,-0.668c-6.771,-0.002 -7.147,1.232 -10.421,-1.177c-20.631,-15.187 -21.949,-14.575 -21.749,-16.762c0.586,-6.4 3.25,-4.281 9.668,-4.888c2.832,-0.268 48.267,1.492 48.955,-0.607c0.892,-2.721 -1.551,-1.398 -32.894,-1.742c-4.8,-0.053 -3.944,-11.032 -2.173,-11.145c2.319,-0.147 24.652,-1.566 29.04,-0.039c24.321,8.459 25.848,3.672 28.934,6.567c0.338,0.317 1.286,4.662 -1.052,4.752c-1.706,0.065 -17.919,-0.96 -14.511,2.093c1.803,1.615 17.039,-0.755 17.675,1.776c1.653,6.586 -4.077,11.494 3.231,12.165c1.448,0.133 1.271,-0.285 2.053,-1.43c0.731,-0.877 1.461,-1.753 2.192,-2.63Z" style="fill:#fafafa;"/><path d="M34.246,590.791c-5.893,6.147 -6.766,4.711 -14.678,7.824c-5.821,2.291 5.538,-12.879 -1.533,-42.669c-1.92,-8.088 -7.822,-20.132 -8.648,-21.818c-2.627,-5.361 2.923,-2.874 28.272,-17.144c14.877,-8.375 16.681,-13.422 19.79,-7.434c2.577,4.963 25.139,48.419 5.901,69.649c-3.662,4.041 -14.334,-7.582 -18.619,-1.64c-4.968,6.888 -4.835,6.895 -10.485,13.231Z" style="fill:#fafafa;"/><path d="M502.786,115.359c-15.559,15.552 -37.36,21.021 -40.538,21.916c-6.831,1.926 -45.688,-18.224 -59.76,-54.154c-3.135,-8.005 11.305,0.374 35.018,-2.868c17.002,-2.325 18.869,-5.096 21.801,0.677c14.33,28.21 44.833,29.689 44.844,32.34c0.001,0.2 -0.101,0.155 -1.365,2.089Z" style="fill:#0d0d0d;"/><path d="M697.959,108.634c17.733,4.468 23.61,2.83 21.994,6.626c-2.208,5.187 -16.593,38.973 -44.806,54.392c-0.956,0.523 -3.464,2.763 -41.812,-18.457c-0.722,-0.399 -5.78,-2.406 -2.647,-4.203c38.18,-21.893 37.18,-47.752 42.381,-46.057c12.391,4.037 12.233,4.292 24.89,7.699Z" style="fill:#fdfdfd;"/><path d="M605.649,576.824c22.938,1.174 55.511,-1.007 57.189,1.22c3.265,4.333 1.139,4.62 0.764,4.638c-10.054,0.478 -51.834,-1.043 -52.357,1.056c-0.521,2.092 1.226,1.67 40.541,1.683c12.678,0.004 13.876,-1.487 17.255,3.533c10.119,15.03 22.707,16.124 19.168,19.355c-0.746,0.681 -84.225,0.445 -84.677,0.066c-6.156,-5.17 3.696,-5.867 4.278,-5.908c2.526,-0.179 2.617,-2.443 0.019,-2.526c-5.125,-0.164 -7.687,-0.449 -7.825,1.915c-0.296,5.061 1.324,6.615 -1.739,6.735c-29.723,1.163 -31.799,-0.231 -34.064,-1.752c-1.917,-1.287 -20.6,-15.561 -16.259,-16.273c1.168,-0.192 1.109,0.706 14.796,0.23c4.891,-0.17 -6.923,-6.059 -2.04,-6.075c26.872,-0.09 28.471,0.05 28.002,-2.148c-0.224,-1.051 -5.895,-5.656 -2.388,-5.691c0.558,-0.006 12.248,0.439 19.337,-0.057Z" style="fill:#fcfcfc;"/><path d="M556.421,582.389c-8.4,-1.435 -10.587,-6.039 -36.521,-12.281c-14.487,-3.487 -44.832,6.006 -49.288,5.353c-2.215,-0.325 -1.143,-11.065 -1.12,-11.138c0.66,-2.137 32.145,-0.506 35.472,-1.099c0.271,-0.048 3.354,-2.688 -2.116,-2.708c-31.799,-0.116 -33.638,1.159 -33.483,-1.518c0.15,-2.59 18.467,-1.591 20.359,-2.548c5.88,-2.973 -5.676,-2.266 -6.202,-2.234c-8.855,0.542 -8.84,0.566 -9.609,0.606c-4.201,0.219 -2.154,-7.895 -1.981,-8.578c0.36,-1.428 1.137,-1.147 61.988,-1.232c45.68,-0.064 47.493,-0.846 47.689,2.326c0.191,3.095 -14.01,0.924 -21.07,1.618c-0.995,0.098 -2.762,2.427 1.243,2.53c18.765,0.482 18.72,0.036 20.347,0.087c3.688,0.117 -2.967,10.717 -1.873,11.456c0.48,0.324 1.26,0.201 1.603,0.668c1.119,1.52 -1.239,9.63 -1.475,10.44c-0.361,1.241 0.124,1.205 3.465,6.478c1.177,1.857 -1.076,1.131 -27.427,1.776Z" style="fill:#fcfcfc;"/><path d="M128.8,133.241c3.6,-0.772 21.125,-3.527 37.708,-14.404c5.461,-3.582 5.956,0.101 7.756,2.761c17.277,25.531 40.521,28.713 42.903,30.984c3.462,3.301 -30.699,24.076 -41.106,28.276c-3.397,1.371 -31.028,-8.714 -46.678,-38.915c-3.381,-6.525 -3.358,-7.527 -0.584,-8.702Z" style="fill:#0c0c0c;"/><path d="M782.933,604.964c0.574,2.713 2.289,4.099 -0.469,4.104c-9.191,0.019 -48.667,-2.906 -54.192,-26.562c-4.312,-18.461 8.912,-46.161 11.363,-45.872c2.767,0.326 11.74,10.324 43.869,17.456c4.033,0.895 6.232,-0.272 5.105,2.665c-5.429,14.138 -12.182,24.246 -5.675,48.208Z" style="fill:#fafafa;"/><path d="M263.812,240.311c4.387,-0.586 4.88,0.626 7.287,-1.924c0.265,-0.28 2.282,-4.86 3.86,-6.735c0.598,-0.711 21.513,-0.247 32.868,-0.413c6.482,-0.095 5.59,2.217 11.033,5.834c2.828,1.879 38.317,-2.557 56.528,-1.906c2.273,0.081 1.038,3.711 0.073,7.809c-0.657,2.792 -9.541,2.784 -10.872,2.94c-19.992,2.336 -25.875,11.591 -29.977,11.263c-30.131,-2.413 -52.181,2.747 -55.567,1.504c-1.598,-0.587 -1.437,-10.374 -1.425,-10.444c0.466,-2.878 25.596,-0.367 27.829,-1.451c7.157,-3.474 -21.693,-2.332 -26.619,-2.53c-2.061,-0.083 -1.383,-2.338 -1.317,-2.559c0.664,-2.21 31.22,1.06 34.886,-0.696c5.92,-2.835 -20.813,-2.618 -32.426,-2.813c-3.488,-0.058 -2.571,-1.93 -3.439,-2.436c-1.537,-0.896 -2.695,0.511 -1.266,22.198c0.363,5.505 3.802,2.719 5.278,3.638c5.413,3.371 -11.431,1.234 -14.526,1.109c-2.829,-0.114 -31.507,-1.274 -35.363,-1.49c-2.282,-0.128 -0.163,-8.707 -0.376,-9.664c-0.722,-3.244 -15.007,1.822 -27.462,3.107c-1.807,0.186 -1.903,-0.304 -1.839,-2.075c0.524,-14.51 2.852,-14.22 3.985,-13.962c18.976,4.328 29.408,8.83 58.846,1.697Z" style="fill:#fafafa;"/><path d="M280.041,534.222c-57.37,-25.836 -76.647,-30.492 -76.898,-35.224c-0.114,-2.147 9.355,-28.134 9.672,-28.635c0.828,-1.304 4.848,2.336 31.495,13.088c3.034,1.224 -0.448,5.92 -0.182,8.146c0.409,3.423 16.484,8.081 16.529,8.074c2.892,-0.482 1.981,-1.568 3.77,-5.635c0.613,-1.392 1.632,-0.99 8.982,2.104c19.378,8.16 19.44,8.924 27.995,8.089c0.362,-0.035 1.824,-0.054 0.273,4.534c-9.021,26.685 -8.558,26.848 -9.7,29.012c-0.844,1.599 -7.119,-1.571 -11.936,-3.555Z" style="fill:#fcfcfc;"/><path d="M417.933,391.177c-3.964,-3.019 -32.047,-24.406 -46.418,-41.531c-5.443,-6.485 -7.814,-8.151 -3.54,-9.951c27.147,-11.431 28.711,-12.987 29.869,-13.054c1.614,-0.093 29.179,31.87 60.983,45.069c5.033,2.089 0.464,3.255 -2.164,4.994c-2.342,1.55 -20.752,13.728 -29.86,18.463c-2.436,1.266 -6.707,-2.544 -8.87,-3.989Z" style="fill:#fcfcfc;"/><path d="M279.969,538.786c1.234,0.054 4.657,0.206 14.749,4.573c1.424,0.616 -1.762,7.466 -2.043,8.07c-0.876,1.883 -8.517,1.237 -14.85,1.243c-51.732,0.045 -56.317,-1.259 -53.735,2.182c1.039,1.385 63.631,0.081 65.707,0.692c1.393,0.41 -3.082,14.677 -6.646,14.808c-21.518,0.791 -34.341,-6.532 -32.414,0.557c0.666,2.45 2.159,4.756 -2.925,4.596c-17.558,-0.552 -17.523,-1.241 -22.509,-3.576c-6.036,-2.827 -21.428,-7.191 -22.259,-7.813c-8.698,-6.509 -26.674,-3.23 -28.085,-5.089c-3.71,-4.89 39.208,-6.31 40.292,-7.84c2.72,-3.841 -16.029,-0.73 -19.92,-0.357c-2.711,0.26 -2.531,-4.015 -2.306,-13.24c0.048,-1.984 0.293,-2.249 2.29,-2.243c17.98,0.056 21.909,1.623 39.784,10.54c5.425,2.706 0.832,-6.836 6.304,-6.854c19.284,-0.064 19.214,0.113 38.565,-0.249Z" style="fill:#fcfbfc;"/><path d="M326.972,613.342c-3.103,1.088 -35.359,12.395 -40.225,8.428c-24.671,-20.116 -33.862,-49.77 -32.53,-50.991c0.687,-0.63 20.146,5.548 51.376,0.593c7.526,-1.194 3.243,6.4 18.418,20.758c10.076,9.533 19.936,11.412 16.904,13.893c-3.714,3.04 -12.782,6.833 -13.944,7.319Z" style="fill:#fdfcfd;"/><path d="M698.888,479.067c-14.959,-1.954 -20.81,-2.096 -24.387,-3.057c-1.372,-0.368 -1.693,-7.399 -1.723,-8.058c-0.157,-3.44 3.345,-2.579 6.887,-2.364c58.407,3.553 67.419,46.146 72.121,56.842c7.592,17.267 14.171,22.508 14.195,22.752c0.057,0.591 -0.529,1.066 -7.167,-1.912c-14.213,-6.375 -15.166,-8.254 -19.112,-10.072c-4.797,-2.21 -13.411,23.518 -14.615,32.305c-0.825,6.021 1.293,8.66 -4.769,9.11c-7.421,0.551 -11.933,3.569 -10.608,-3.785c1.099,-6.1 -7.828,-1.529 -7.145,-5.309c2.029,-11.226 1.875,-11.152 3.181,-22.405c0.513,-4.421 6.674,6.664 13.133,1.512c13.135,-10.479 12.493,-11.131 25.778,-21.42c12.575,-9.739 -9.521,-1.682 -38.494,-25.999c-4.095,-3.437 -11.516,7.879 -14.761,7.255c-1.457,-0.28 0.251,-17.092 0.882,-18.418c0.759,-1.596 21.122,-5.483 6.605,-6.978Z" style="fill:#fbfbfb;"/><path d="M452.394,80.734c5.529,-0.843 3.813,2.47 10.23,10.721c14.488,18.627 35.643,22.112 35.74,22.161c3.888,1.977 -17.284,15.102 -32.099,19.533c-3.598,1.076 -10.135,4.537 -35.207,-15.593c-13.655,-10.963 -28.964,-35.568 -23.587,-35.049c15.497,1.496 15.646,3.575 44.922,-1.773Z" style="fill:#f9f9fa;"/><path d="M156.502,295.104c-15.449,9.412 -18.38,8.131 -19.94,7.448c-13.801,-6.035 -34.32,-19.379 -30.844,-20.552c0.309,-0.104 15.014,-2.707 28.994,-16.104c18.758,-17.976 13.93,-30.303 21.127,-26.501c27.968,14.772 31.804,6.66 33.842,10.13c0.282,0.479 -4.662,20.437 -23.685,37.983c-2.905,2.679 -8.715,7.015 -9.494,7.597Z" style="fill:#fdfcfd;"/><path d="M523.161,449.303c2.049,-0.177 25.13,-2.172 25.657,-1.602c2.179,2.353 -4.013,-0.639 -29.538,27.1c-1.361,1.479 -4.35,0.92 -47.51,0.941c-26.236,0.013 -27.344,0.456 -28.141,-2.347c-7.609,-26.786 -8.227,-28.249 -5.914,-28.543c19.739,-2.511 30.017,0.567 41.681,3.396c3.991,0.968 0.271,15.514 3.021,15.762c3.776,0.341 -0.582,-15.123 3.29,-14.371c18.333,3.563 20.082,6.677 22.956,1.433c0.905,-1.652 1.397,-0.841 14.498,-1.768Z" style="fill:#fcfcfc;"/><path d="M134.098,144.447c-2.828,-5.435 -6.825,-7.909 -0.817,-9.205c4.037,-0.871 11.079,-1.964 22.277,-7.184c7.339,-3.421 6.934,-4.023 13.057,-7.049c3.081,-1.523 2.293,4.812 16.679,17.367c13.199,11.519 25.032,14.247 26.869,14.988c3.879,1.564 -24.491,19.249 -36.108,24.258c-3.83,1.651 -27.867,-8.699 -41.956,-33.175Z" style="fill:#fdfdfd;"/><path d="M526.503,314.776c8.888,-8.93 8.481,-11.939 11.693,-11.915c2.571,0.019 29.587,0.217 32.121,1.206c2.903,1.134 -2.231,5.683 5.353,8.597c12.212,4.691 12.362,4.11 24.501,8.929c4.453,1.767 2.031,3.372 1.292,12.42c-0.287,3.518 0.323,4.866 -3.243,4.879c-3.528,0.013 -26.791,0.097 -43.94,3.701c-0.965,0.203 -28.412,-4.252 -41.782,-5.459c-5.223,-0.472 -5.585,-0.142 -5.693,-0.858c-0.321,-2.13 2.067,-0.731 18.393,-19.66c3.196,2.188 3.492,2.01 48.386,1.761c7.628,-0.042 0.203,-2.711 -0.014,-2.714c-27.728,-0.4 -43.213,0.923 -47.066,-0.889Z" style="fill:#fbfbfb;"/><path d="M593.099,390.697c4.519,10.792 8.339,16.998 4.044,17.283c-42.052,2.795 -43.68,5.714 -45.028,2.118c-18.493,-49.324 -31.748,-49.434 -30.053,-52.545c1.058,-1.941 18.091,6.268 50.424,4.154c5.376,-0.352 5.398,2.159 11.953,12.92c0.76,1.247 4.896,8.039 8.66,16.069Z" style="fill:#fcfcfc;"/><path d="M69.972,413.294c15.155,29.484 29.46,28.073 21.552,32.403c-17.19,9.411 -35.11,24.281 -34.994,21.061c0.266,-7.371 5.977,-16.875 6.778,-18.207c2.029,-3.377 3.026,-4.878 -0.788,-5.779c-36.08,-8.527 -39.459,-19.976 -36.009,-24.952c10.061,-14.514 28.545,-13.399 20.747,-15.799c-3.879,-1.193 -7.006,6.462 -14.473,0.136c-3.728,-3.158 -2.958,-3.867 -2.598,-3.993c10.461,-3.678 11.089,-1.739 31.304,-11.397c3.319,-1.586 1.451,1.644 3.891,13.732c1.01,5.004 1.395,4.819 4.591,12.794Z" style="fill:#fcfcfc;"/><path d="M657.108,405.327c5.171,-0.56 7.569,-1.155 8.347,0.62c0.752,1.716 5.575,12.727 12.458,19.823c12.921,13.321 24.392,10.935 17.464,15.997c-21.523,15.724 -43.189,11.866 -45.796,11.586c-14.309,-1.538 -32.805,-51.527 -25.702,-51.073c10.666,0.682 10.408,3.688 33.229,3.048Z" style="fill:#fdfcfd;"/><path d="M599.323,264.815c9.783,-1.414 9.767,-1.28 11.653,-1.844c28.563,-8.544 27.784,-21.34 33.303,-17.887c21.788,13.633 23.934,7.44 32.345,10.258c5.614,1.881 -18.887,31.631 -41.938,37.048c-7.409,1.741 -28.292,-7.573 -44.811,-23.979c-4.335,-4.306 8.635,-3.564 9.448,-3.596Z" style="fill:#0e0e0e;"/><path d="M123.468,569.263c8.676,-1.622 8.676,-1.141 17.31,-3.357c0.225,-0.058 3.162,-0.812 2.318,1.741c-10.975,33.181 -40.204,48.302 -42.171,48.751c-1.22,0.279 -39.865,-8.794 -40.461,-9.341c-2.193,-2.011 0.393,-1.68 2.98,-3.152c24.402,-13.883 29.817,-33.966 33.308,-33.878c13.406,0.336 13.328,0.421 26.716,-0.764Z" style="fill:#fdfcfd;"/><path d="M213.687,390.795c-3.697,2.1 -16.41,-4.776 -19.569,-3.546c-3.824,1.489 -46.544,18.124 -48.119,17.768c-1.075,-0.243 -42.287,-19.983 -41.345,-22.485c0.419,-1.113 33.693,-6.001 35.208,-9.831c2.423,-6.123 0.684,-9.273 7.243,-8.778c26.666,2.013 26.809,1.342 28.705,2.655c6.711,4.647 13.799,12.686 35.323,22.554c1.433,0.657 1.26,0.82 2.554,1.663Z" style="fill:#fcfcfc;"/><path d="M-0.325,252.611c0.47,-3.523 1.503,-42.771 43.483,-55.77c19.845,-6.145 56.371,-6.276 39.501,-0.442c-32.915,11.382 -36.426,35.306 -37.95,40.257c-1.134,3.682 -5.604,1.622 -18.894,6.868c-21.179,8.359 -26.047,19.134 -26.14,9.088Z" style="fill:#0c0c0c;"/><path d="M593.971,499.001c-0.218,-1.447 -0.749,-2.835 -0.968,-4.282c-0.492,-3.261 -0.221,-3.235 -0.722,-6.488c-0.013,-0.083 -1.938,-2.371 10.359,-7.059c10.315,-3.933 10.621,-1.411 20.368,3.642c24.761,12.837 35.271,18.857 38.511,16.465c24.272,-17.921 27.529,-15.399 27.325,-12.987c-1.365,16.108 1.004,17.921 -3.693,19.663c-17.562,6.511 -27.528,2.402 -26.556,5.953c0.029,0.105 6.917,3.535 1.753,3.274c-4.452,-0.225 -15.551,-0.785 -55.713,-0.643c-4.214,0.015 -5.544,1.977 -13.669,-6.991c-2.532,-2.795 -0.282,-4.379 1.715,-2.797c3.712,2.941 42.331,1.716 42.573,1.466c3.087,-3.178 -10.307,-1.973 -31.691,-2.628c-5.527,-0.169 -7.261,1.879 -9.113,-3.343c8.167,-1.126 35.464,1.607 36.673,-0.224c2.758,-4.178 -27.911,-1.391 -37.153,-3.022Z" style="fill:#fbfbfb;"/><path d="M400.44,522.656c-0.277,2.581 -0.12,9.454 -2.616,9.525c-13.887,0.395 -45.34,0.128 -49.282,0.095c-2.322,-0.02 -1.978,-1.074 -0.846,-3.133c8.508,-15.472 9.453,-15.063 16.529,-39.874c0.112,-0.393 1.261,-4.423 2.47,-4.471c2.405,-0.097 2.39,0.015 30.09,-0.041c0.333,-0.001 2.319,-1.453 6.084,10.072c0.048,0.148 -0.336,10.806 -2.429,27.828Z" style="fill:#fcfcfc;"/><path d="M300.285,193.215c2.4,-0.192 13.362,-1.069 30.044,-1.731c7.258,-0.288 10.634,7.376 36.533,13.809c4.663,1.158 -0.839,1.354 -5.475,2.192c-6.223,1.126 -51.706,9.353 -78.26,11.109c-3.381,0.224 -0.674,-1.602 0.613,-4.777c1.732,-4.275 -21.224,-0.09 -28.506,-1.5c-5.447,-1.055 -19.46,-7.514 -21.107,-8.274c-4.091,-1.886 1.159,-1.517 11.502,-3.261c21.621,-3.647 27.418,-4.498 38.787,-5.795c4.181,-0.477 9.116,-1.014 15.869,-1.773Z" style="fill:#fcfcfc;"/><path d="M691.538,317.487c13.088,2.04 16.583,-0.029 14.882,3.659c-2.471,5.357 -14.527,32.962 -46.051,38.662c-6.73,1.217 -38.337,-20.34 -32.406,-20.847c3.772,-0.323 11.925,1.261 24.201,-7.632c15.966,-11.566 13.779,-24.781 17.733,-22.755c5.595,2.867 6.592,4.859 21.643,8.912Z" style="fill:#fcfcfc;"/><path d="M181.971,275.118c0.176,-1.375 0.272,-2.13 7.422,-15.655c1.388,-2.625 5.617,0.966 34.819,-5.984c8.747,-2.082 -5.444,9.156 10.277,32.621c2.311,3.449 0.12,3.507 -3.516,5.569c-29.21,16.563 -30.092,15.486 -31.459,14.612c-13.187,-8.422 -17.004,-28.353 -17.542,-31.163Z" style="fill:#fcfcfc;"/><path d="M98.258,444.237c-0.758,-1.599 -21.573,-21.08 -23.938,-28.817c-1.315,-4.302 3.876,-0.798 29.548,-21.853c3.744,-3.07 3.421,-4.014 5.694,-3.616c0.399,0.07 11.918,5.595 12.136,7.206c0.882,6.501 1.959,6.415 0.796,12.94c-0.663,3.718 -11.91,9.742 -0.038,9.773c9.672,0.025 10.659,-1.286 11.322,1.137c3.396,12.407 1.296,13.039 0.274,13.347c-2.464,0.741 -25.891,7.791 -30.768,9.364c-2.593,0.836 -2.609,1.638 -5.027,0.52Z" style="fill:#fcfcfc;"/><path d="M49.599,324.758c4.805,0.01 7.94,-0.065 5.26,3.833c-14.582,21.211 -31.803,27.83 -35.217,29.141c-3.951,1.519 -24.048,-2.99 -42.514,-17.766c-2.669,-2.135 -2.549,-3.739 0.742,-4.37c36.347,-6.969 42.101,-20.621 47.113,-20.174c6.024,0.537 3.583,8.059 24.615,9.336Z" style="fill:#0d0d0d;"/><path d="M669.534,463.683c0.602,8.821 1.448,12.165 -1.677,11.799c-14.305,-1.675 -14.243,-3.246 -27.819,-1.718c-18.435,2.075 -29.233,4.395 -32.811,0.209c-6.029,-7.055 -6.133,-7.419 -5.565,-7.948c0.256,-0.239 12.526,0.741 10.371,-2.278c-1.197,-1.676 -17.035,1.235 -15.433,-3.032c0.166,-0.441 6.728,-0.441 4.015,-2.68c-2.724,-2.247 -4.767,2.553 -10.579,-3.336c-3.531,-3.578 -5.717,-5.262 -2.628,-5.313c1.316,-0.022 8.964,1.254 7.761,-2.924c-0.779,-2.705 -2.608,-4.073 -0.104,-3.951c5.431,0.263 36.424,2.605 39.59,2.845c5.6,0.423 2.402,13.981 30.025,11.149c0.314,-0.032 3.55,-0.364 3.94,-0.021c0.436,0.384 0.403,0.465 0.913,7.201Z" style="fill:#fcfcfc;"/><path d="M730.032,608.754c-11.748,0.122 -50.775,3.907 -65.391,-33.649c-0.222,-0.57 -2.664,-6.846 -2.017,-7.379c3.145,-2.586 15.154,12.831 59.881,9.621c4.982,-0.358 -1.292,15.915 21.614,26.337c3.585,1.631 7.743,2.241 3.933,3.25c-3.13,0.829 -16.574,1.723 -18.02,1.82Z" style="fill:#fcfcfc;"/><path d="M161.833,576.643c-4.738,-2.756 -9.3,-4.269 -4.937,-5.319c18.86,-4.54 18.989,-2.851 38.446,-3.4c0.196,-0.006 6.387,-2.06 -0.024,-2.45c-22.703,-1.38 -22.663,-0.084 -44.92,4.543c-5.138,1.068 4.007,5.492 4.534,5.747c5.607,2.712 -1.361,2.45 -11.018,2.387c-3.198,-0.021 1.235,-6.658 2.332,-11.562c1.787,-7.985 -9.394,-1.883 -12.028,-2.06c-2.183,-0.146 -1.81,-11.96 -0.005,-11.539c6.697,1.56 8.822,-1.461 21.661,-8.565c2.237,-1.238 2.353,-0.857 31.953,-0.578c0.574,0.005 4.404,0.042 2.461,6.743c-0.623,2.149 -21.214,1.376 -18.253,9.449c1.463,3.99 23.909,1.6 27.354,4.68c3.272,2.925 3.623,2.183 7.808,3.707c6.945,2.53 19.367,5.62 14.797,6.459c-21.891,4.017 -41.326,6.94 -44.93,7.482c-7.346,1.104 -6.906,-1.232 -15.232,-5.723Z" style="fill:#fbfbfb;"/><path d="M614.137,265.019c1.512,-0.524 11.832,-4.104 18.074,-8.568c7.038,-5.033 9.555,-9.301 11.951,-7.903c14.3,8.339 14.843,7.79 28.068,9.127c5.536,0.56 -17.486,26.293 -36.488,31.431c-13.365,3.614 -39.32,-18.199 -40.549,-19.504c-2.442,-2.592 6.187,-0.718 18.944,-4.582Z" style="fill:#fcfcfc;"/><path d="M206.006,417.264c0.269,-0.026 6.325,-1.814 6.588,1.381c0.012,0.152 0.691,20.114 0.692,20.335c0.015,3.518 -13.812,-2.396 -22.263,1.093c-1.164,0.481 -1.123,2.03 -21.427,0.062c-27.037,-2.621 -30,-0.117 -31.004,-5.412c-2.786,-14.692 -1.321,-15.159 -0.105,-15.233c33.769,-2.036 33.723,-0.693 67.518,-2.226Z" style="fill:#fcfcfc;"/><path d="M398.293,546.238c-0.921,2.959 -1.972,2.213 -19.753,2.873c-32.187,1.194 -35.687,-0.773 -35.749,4.575c-0.438,37.212 0.639,38.701 -1.713,38.792c-10.957,0.427 -12.407,1.905 -19.241,-6.728c-1.445,-1.826 -4.958,-3.935 -2.73,-7.75c9.69,-16.591 9.598,-16.518 19.479,-33.094c2.673,-4.484 4.761,-9.898 7.783,-9.906c4.128,-0.012 50.437,-0.147 51.597,0.093c2.281,0.472 0.394,10.429 0.327,11.145Z" style="fill:#fbfbfb;"/><path d="M691.221,508.249c4.324,-2.536 4.44,-2.243 8.434,-5.389c0.39,-0.307 4.359,-3.434 5.629,-2.626c9.658,6.146 8.89,10.511 36.56,19.053c3.302,1.019 -0.161,2 -10.042,10.396c-7.519,6.389 -7.398,6.41 -14.951,12.847c-2.645,2.254 -24.041,-11.71 -39.593,-20.59c-9.833,-5.614 -12.245,-4.937 -10.765,-7.048c1.822,-2.598 4.004,2.987 24.727,-6.644Z" style="fill:#fcfcfc;"/><path d="M47.12,221.299c-4.441,8.24 -3.855,14.409 -7.187,15.158c-33.144,7.453 -31.174,15.477 -36.447,15.119c-2.144,-0.146 1.797,-40.165 39.634,-51.619c14.721,-4.456 41.475,-7.125 30.25,-2.78c-14.703,5.692 -24.736,21.704 -26.251,24.121Z" style="fill:#fcfcfc;"/><path d="M387.821,219.371c0.251,-1.864 0.001,-1.887 0.67,-3.066c4.198,-7.398 8.633,4.63 10.424,4.729c6.441,0.356 1.136,-20.419 9.529,-18.4c18.768,4.514 19.118,0.828 20.633,1.494c1.823,0.801 3.039,34.503 -4.77,38.275c-8.679,4.192 -22.514,-6.45 -23.25,-5.891c-0.871,0.661 -2.449,3.37 10.863,8.301c2.178,0.807 0.315,7.633 -3.534,11.883c-1.252,1.383 -2.841,1.842 -17.884,-14.961c-0.575,-0.642 -1.25,-1.396 1.993,-10.583c0.533,-1.511 2.765,-1.773 2.481,-3.379c-0.364,-2.05 -5.609,1.567 -7.155,-8.403Z" style="fill:#fbfbfb;"/><path d="M264.33,273.715c-4.66,-2.448 -32.841,0.13 -33.711,-2.898c-1.809,-6.297 -0.54,-6.803 1.101,-6.794c25.801,0.14 25.686,1.414 51.491,2.068c4.072,0.103 6.615,7.937 11.819,7.256c25.085,-3.286 26.967,-3.369 26.186,-1.421c-1.374,3.425 -3.477,1.89 -28.033,36.637c-1.735,2.454 -16.315,0.837 -27.195,1.257c-3.038,0.117 -1.332,-1.756 -3.058,-6.916c-3.995,-11.944 -3.266,-12.717 -2.233,-12.716c3.37,0.003 14.638,9.327 17.879,6.974c17.979,-13.051 33.842,-12.936 21.702,-16.54c-11.403,-3.386 -26.67,-7.283 -34.239,-5.262c-0.57,-0.548 -1.141,-1.096 -1.711,-1.643Z" style="fill:#fbfbfb;"/><path d="M400.414,208.685c-0.567,6.871 0.529,8.065 -1.556,7.935c-0.512,-0.032 -3.095,-7.577 -9.699,-5.021c-4.951,1.916 -5.033,11.215 -1.596,14.949c0.203,0.221 4.286,4.656 0.571,3.711c-3.504,-0.892 -18.903,-19.007 -8.289,-29.969c6.341,-6.549 -0.909,-10.626 6.351,-16.104c6.917,-5.22 14.953,1.191 20.968,-3.814c1.476,-1.228 8.976,-10.933 21.521,-0.384c6.869,5.776 15.636,28.289 -20.022,19.627c-7.624,-1.852 -8.035,8.165 -8.249,9.07Z"/><path d="M261.525,236.226c-19.167,12.684 -60.786,-1.906 -60.788,-1.909c-1.559,-2.268 2.577,0.022 28.022,-19.96c3.834,-3.011 12.796,2.795 43.7,0.604c7.095,-0.503 7.307,0.513 7.044,1.019c-4.139,7.974 -16.357,18.81 -17.978,20.247Z" style="fill:#fcfcfc;"/><path d="M577.959,618.006c-2.798,0.658 -49.419,5.46 -67.655,0.085c-1.591,-0.469 -12.292,-3.623 -16.913,-11.983c-1.405,-2.542 1.424,-0.499 7.202,-2.407c4.269,-1.41 41.524,-11.95 43.987,-10.269c4.665,3.183 6.467,9.218 24.524,19.505c4.505,2.567 4.463,2.442 8.855,5.069Z" style="fill:#fcfcfc;"/><path d="M557.548,587.993c-5.029,0.297 -4.929,-0.559 -9.705,-0.169c-29.336,2.395 -39.774,7.447 -49.358,9.42c-1.904,0.392 -3.218,0.663 -22.57,-9.002c-8.774,-4.382 -19.996,-7.893 -14.753,-8.569c19.454,-2.507 36.691,-6.504 50.256,-7.78c10.152,-0.954 46.02,13.53 46.663,15.831c0.053,0.191 -0.586,0.077 -0.532,0.268Z" style="fill:#fcfcfc;"/><path d="M773.977,404.306c2.707,0.899 3.242,2.576 -3.646,11.915c-1.024,1.389 -20.69,25.247 -37.996,18.077c-13.834,-5.731 -27.039,-19.063 -19.432,-18.204c29.401,3.319 34.674,-23.95 40.487,-19.663c8.392,6.189 9.957,6.752 20.587,7.875Z" style="fill:#0b0b0b;"/><path d="M213.559,413.759c-11.649,1.235 -12.346,1.05 -12.565,-0.547c-0.839,-6.097 -2.276,-10.183 1.831,-10.256c35.878,-0.639 67.893,0.044 56.649,-3.181c-2.495,-0.716 -58.137,1.161 -59.023,-0.21c-1.166,-1.805 -1.818,-2.106 -3.151,-0.317c-1.322,1.774 -7.515,-0.425 -12.705,-0.898c-0.362,-0.033 -6.751,-0.615 -4.093,-1.959c1.061,-0.537 7.811,-3.951 13.662,-5.849c2.982,-0.967 14.61,3.519 19.37,3.384c3.398,-0.096 53.733,-0.101 54.669,0.036c3.36,0.49 -1.156,3.288 2.061,7.606c1.584,2.125 -1.17,5.86 0.244,9.542c1.369,3.566 -2.321,0.736 -56.95,2.649Z" style="fill:#fbfbfb;"/><path d="M215.777,509.681c-0.404,0.417 0.106,1.252 -2.228,1.224c-19.334,-0.233 -23.034,1.461 -23.615,1.027c-1.546,-1.155 11.496,-19.553 9.74,-23.674c-0.375,-0.879 -26.613,-10.708 -31.561,-13.642c-3.2,-1.898 1.057,-0.598 4.721,-1.259c0.267,-0.048 3.153,-2.545 -2.141,-2.629c-9.198,-0.146 -9.426,0.15 -17.451,-4.463c-4.204,-2.416 -4.923,2.265 -5.19,2.678c-0.323,0.499 -0.399,1.219 -15.994,0.459c-3.842,-0.187 -2.46,-1.884 -2.773,-5.766c-0.318,-3.949 3.803,-3.651 19.821,-7.98c20.294,-5.484 26.182,-8.301 26.323,-8.187c1.462,1.174 -9.276,5.919 -10.974,6.923c-7.952,4.706 -12.101,0.875 -11.095,5.069c1.163,4.847 12.552,-7.727 34.83,10.149c3.331,2.673 16.041,-4.308 21.117,-4.176c2.444,0.064 1.542,1.817 -8.303,29.41c-2.935,8.227 1.456,9.951 14.77,14.837Z" style="fill:#fafafa;"/><path d="M-1.98,349.317c-2.243,-1.121 -5.229,-1.956 -13.092,-7.284c-1.145,-0.776 -6.442,-3.4 -2.724,-4.417c21.831,-5.973 22.274,-5.377 40.877,-18.186c2.753,-1.895 8.475,5.58 16.846,7.193c9.752,1.88 9.862,0.821 10.692,1.046c2.932,0.794 -11.693,14.905 -15.293,17.717c-16.208,12.659 -18.303,11.749 -37.306,3.932Z" style="fill:#fcfcfc;"/><path d="M264.33,273.715c0.57,0.548 1.141,1.096 1.711,1.643c-7.777,3.335 -32.299,5.539 -21.359,9.142c11.623,3.828 11.973,3.968 12.204,5.461c1.13,7.288 1.154,7.221 3.549,14.12c3.171,9.132 -39.753,-6.498 -32.902,0.927c0.979,1.061 28.767,3.697 17.145,4.54c-17.087,1.241 -17.471,2.23 -22.71,-1.025c-7.457,-4.633 -5.111,4.019 -8.271,4.487c-12.626,1.87 -20.961,-0.863 -22.689,-1.43c-34.313,-11.253 -37.191,-11.103 -35.18,-12.654c1.624,-1.252 2.21,1.989 25.473,-2.892c4.023,-0.844 4.519,-1.06 7.004,2.272c12.497,16.759 15.987,10.7 18.942,9.186c28.088,-14.395 33.743,-17.235 31.499,-20.249c-8.108,-10.888 -7.118,-12.052 -6.06,-12.359c1.375,-0.399 28.252,1.203 30.109,0.132c0.581,-0.335 0.953,-0.967 1.534,-1.302Z" style="fill:#fafafa;"/><path d="M393.542,551.289c3.152,0.053 3.376,-0.382 3.929,0.484c0.504,0.788 -1.016,17.436 -1.257,18.191c-0.852,2.669 -43.073,0.254 -46.866,1.41c-11.411,3.478 26.172,2.271 44.22,2.418c3.839,0.031 2.211,3.352 1.33,3.878c-0.717,0.429 -47.908,0.202 -48.253,0.149c-1.823,-0.283 -1.435,-1.213 -1.055,-23.043c0.061,-3.536 2.41,-1.201 47.952,-3.487Z" style="fill:#fbfbfb;"/><path d="M457.842,584.157c1.808,0.282 4.308,0.671 21.197,8.607c9.531,4.478 6.879,7.131 12.817,15.719c2.233,3.229 -2.015,1.098 -49.03,2.153c-3.721,0.083 -1.775,-2.186 -1.306,-18.408c0.237,-8.2 -14.23,-2.294 -14.944,-5.266c-0.954,-3.97 2.184,-1.804 31.266,-2.804Z" style="fill:#fcfcfc;"/><path d="M82.813,580.969c-14.863,-0.351 -16.808,0.848 -16.059,-1.573c0.534,-1.725 6.616,-5.765 7.008,-24.653c0.057,-2.737 -1.178,-4.03 1.573,-4.114c3.588,-0.11 43.164,-1.317 44.868,-0.036c0.395,0.297 3.8,15.885 -0.906,16.271c-21.199,1.741 -24.629,-2.111 -27.483,3.117c-3.406,6.238 -4.415,10.346 -9.001,10.988Z" style="fill:#fcfbfc;"/><path d="M463.362,227.613c-2.054,-0.934 -2.043,-0.923 -2.218,-1.008c-1.767,-0.856 -1.637,-0.94 -3.367,-1.758c-5.739,-2.713 -12.415,-3.826 -6.52,-4.753c39.761,-6.255 45.554,-8.184 51.881,-4.426c13.661,8.114 21.428,7.851 22.894,10.347c3.864,6.576 -1.517,6.267 -4.018,6.769c-31.876,6.391 -46.678,-1.115 -58.652,-5.171Z" style="fill:#fcfcfc;"/><path d="M203.881,513.679c7.544,-0.22 7.462,-0.156 15.013,-0.635c4.83,-0.306 4.853,0.345 56.429,21.792c4.358,1.812 -1.69,1.375 -26.423,1.397c-6.205,0.006 -9.676,2.128 -8.741,-4.024c0.391,-2.573 -0.909,-3.327 -11.696,-6.056c-1.868,-0.473 -27.002,3.722 -27.544,4.283c-3.406,3.531 -3.992,2.32 -8.874,2.185c-2.5,-0.069 -1.733,-4.668 -0.738,-16.402c0.23,-2.711 8.487,-2.262 12.573,-2.542Z" style="fill:#fbfbfb;"/><path d="M619.991,405.753c0.669,5.583 1.686,8.224 -1.435,8.27c-6.865,0.101 -21.258,-1.117 -18.773,2.073c1.162,1.491 21.184,-0.24 22.109,1.403c0.085,0.151 2.394,7.207 2.285,7.678c-0.26,1.12 -50.159,1.273 -50.589,-0.099c-0.091,-0.289 -0.039,-11.925 1.394,-12.372c7.343,-2.29 28.977,-0.032 27.774,-4.813c-1.946,-7.735 -7.496,-16.281 -4.641,-16.446c2.199,-0.126 1.957,1.152 26.817,6.249c4.972,1.019 0.331,2.27 0.154,2.24c-4.061,-0.693 -4.289,-1.32 -4.988,-0.291c-0.475,0.7 -0.141,5.62 -0.108,6.107Z" style="fill:#fbfbfb;"/><path d="M335.799,613.419c0.207,-3.047 3.498,-2.406 10.325,-7.576c4.038,-3.058 -13.989,-8.041 -12.621,-10.404c0.213,-0.368 0.339,-0.197 5.39,-0.23c4.552,-0.03 54.835,-0.366 56.9,-0.213c2.066,0.153 1.658,3.931 0.467,5.438c-4.061,5.138 -2.584,11.104 -3.705,12.239c-1.33,1.347 -39.04,0.118 -56.756,0.746Z" style="fill:#f9f9f9;"/><path d="M117.099,508.323c-0.44,-0.026 -5.198,-0.307 -5.493,-0.395c-1.785,-0.529 -1.092,-1.166 -2.385,-5.579c-1.479,-5.047 -3.668,-4.765 -2.16,-9.851c1.691,-5.706 -1.742,-16.958 2.604,-17.81c17.458,-3.423 17.468,-3.003 35.159,-1.971c5.592,0.326 -17.742,34.947 -27.725,35.606Z" style="fill:#fcfcfc;"/><path d="M283.534,327.726c-4.802,14.987 -4.496,15.429 -5.8,15.746c-0.572,0.139 -11.87,0.235 -12.27,-0.153c-1.876,-1.824 7.464,-9.663 0.512,-12.319c-2.718,-1.038 -8.77,-3.349 -32.802,-15.701c-5.408,-2.779 6.219,-2.46 22.199,-4.568c2.804,-0.37 2.978,-0.776 5.173,0.924c2.813,2.178 29.462,-0.672 29.577,1.944c0.055,1.246 -1.263,0.76 -6.589,14.128Z" style="fill:#fbfbfb;"/><path d="M198.533,322.669c2.691,0.037 11.53,-0.694 10.383,1.597c-0.411,0.821 -2.818,5.626 -6.179,9.676c-2.095,2.524 -13.271,-0.132 -56.72,-1.56c-4.238,-0.139 -6.926,1.389 -5.784,-2.767c1.174,-4.272 -2.578,-6.312 -1.718,-7.404c0.376,-0.477 25.181,1.886 26.857,1.164c7.854,-3.384 -23.931,-3.334 -24.995,-4.023c-4.985,-3.228 12.512,-3.65 15.284,-3.844c7.377,-0.517 14.771,3.936 42.873,7.16Z" style="fill:#fbfbfb;"/><path d="M270.715,384.446c-1.277,5.743 -0.586,6.614 -2.448,6.689c-3.55,0.144 -37.791,-0.195 -44.001,0.248c-11.179,0.799 4.914,-1.601 23.181,-22.349c6.04,-6.86 7.263,-4.482 11.088,-4.494c10.497,-0.034 15.538,-0.439 15.274,1.608c-0.19,1.472 -0.476,1.412 -3.093,18.298Z" style="fill:#fcfcfc;"/><path d="M135.325,417.021c-9.116,-0.028 -14.634,0.66 -13.006,-1.636c1.914,-2.699 5.621,-6.594 2.613,-13.991c-2.488,-6.118 3.105,-1.467 24.357,8.594c6.378,3.019 16.587,-11.574 31.019,-9.457c0.939,0.138 16.565,1.857 16.793,3.317c1.534,9.821 1.096,11.205 -0.751,11.278c-25.693,1.023 -25.648,0.391 -61.024,1.896Z" style="fill:#fbfbfb;"/><path d="M721.368,419.274c30.729,-6.603 25.832,-23.213 31.88,-19.37c6.835,4.343 6.529,5.326 17.5,6.885c4.23,0.601 -5.548,11.534 -9.706,15.042c-11.827,9.979 -22.516,18.028 -43.55,-0.279c-2.939,-2.558 1.614,-2.22 3.876,-2.278Z" style="fill:#fcfcfc;"/><path d="M452.293,579.4c-0.279,0.802 -0.559,1.604 -0.838,2.406c-21.86,-0.166 -23.804,0.475 -23.251,-2.364c0.403,-2.072 4.467,-22.96 6.273,-25.628c0.641,-0.947 0.989,-0.868 29.767,3.236c3.463,0.494 2.35,4.743 2.324,14.838c-0.016,6.184 -2.591,4.662 -8.702,5.639c-3.103,0.497 -3.672,-0.638 -5.573,1.873Z" style="fill:#fcfcfc;"/><path d="M238.149,584.993c3.044,1.154 2.385,4.459 2.343,14.757c-0.02,4.914 0.46,6.563 -4.456,6.645c-32.505,0.542 -32.732,0.943 -35.008,-0.69c-1.245,-0.893 -2.385,-19.719 0.8,-20.641c0.839,-0.243 20.217,-0.468 36.321,-0.07Z" style="fill:#171717;"/><path d="M634.593,477.225c12.423,-1.439 12.417,-1.964 24.764,-0.075c33.627,5.145 36.085,1.945 35.813,4.823c-0.018,0.193 -0.146,0.143 -7.09,1.745c-15.029,3.467 -27.35,16.165 -29.876,15.339c-7.27,-2.376 -35.147,-17.149 -38.152,-18.741c-3.335,-1.767 3.724,-1.771 14.541,-3.091Z" style="fill:#fcfbfc;"/><path d="M179.174,443.405l0.54,1.302c-5.258,1.578 -38.953,10.28 -42.345,11.156c-12.725,3.286 -14.366,4.425 -18.256,1.557c-7.834,-5.775 -22.04,-8.812 -16.841,-10.507c31.873,-10.394 33.12,-10.542 34.402,-8.023c1.167,2.291 1.792,1.956 31.893,3.974c1.693,0.113 9.758,0.501 10.606,0.542Z" style="fill:#fbfbfb;"/><path d="M183.504,446.473c4.875,-2.231 4.751,-2.33 9.66,-4.268c3.069,-1.212 21.808,0.578 22.382,2.231c0.176,0.508 -5.085,17.873 -6.305,18.142c-1.438,0.317 -2.909,0.482 -4.34,0.829c-6.772,1.638 -13.372,5.185 -15.867,3.286c-17.621,-13.414 -21.04,-6.606 -22.774,-9.342c-0.873,-1.378 0.288,-1.485 17.245,-10.877Z" style="fill:#fcfcfc;"/><path d="M444.609,502.182c1.002,-5.759 -0.266,-7.127 2.536,-7.343c7.572,-0.583 7.475,-0.034 14.981,-0.093c2.489,-0.02 26.56,-0.209 31.11,-0.167c4.539,0.042 -10.905,15.866 -11.884,15.979c-9.592,1.099 -33.567,-0.279 -36.481,-0.446c-2.336,-0.134 -0.586,-6.169 -0.262,-7.93Z" style="fill:#fcfcfc;"/><path d="M370.644,464.609c6.393,-23.761 6.193,-25.66 7.888,-24.492c0.218,0.15 18.47,39.765 18.48,40.7c0.011,0.989 -0.492,1.411 -28.119,1.31c-4.155,-0.015 -1.58,-4.648 1.75,-17.518Z" style="fill:#fbfafb;"/><path d="M445.696,484.053c-0.248,-4.601 -0.827,-5.086 0.332,-5.431c2.701,-0.805 44.396,-0.194 48.256,-0.137c2.702,0.04 2.462,3.521 2.184,11.982c-0.059,1.801 -1.177,1.438 -47.206,1.526c-5.392,0.01 -3.398,-2.588 -3.566,-7.939Z" style="fill:#fcfcfc;"/><path d="M387.79,282.546c0.308,-8.099 0.934,-8.032 -0.028,-16.044c-1.372,-11.418 3.438,1.677 4.117,2.963c5.265,9.974 7.716,-1.147 10.297,-1.382c3.463,-0.315 4.057,2.504 -9.504,42.418c-5.954,17.525 -5.854,17.812 -7.87,18.93c-11.876,6.587 -0.566,-6.158 2.989,-46.886Z" style="fill:#fafafa;"/><path d="M230.697,424.491c-14.828,3.854 -9.934,12.942 -13.187,16.306c-1.741,1.801 -1.404,-0.928 -2.05,-18.913c-0.131,-3.638 -1.358,-5.613 3.424,-5.706c3.933,-0.077 47.961,-0.939 49.169,-0.459c1.75,0.695 -2.504,8.282 -2.96,8.486c-5.775,2.588 -6.061,2.604 -8.677,8.4c-1.828,4.049 -2.676,-2.14 -25.72,-8.115Z" style="fill:#fafafb;"/><path d="M370.477,225.687c0.111,0.413 0.169,0.839 0.28,1.251c1.119,4.147 3.343,5.669 0.407,5.721c-23.169,0.41 -23.049,1.015 -46.227,2.302c-1.308,0.073 -8.836,0.491 -13.395,-9.417c-0.914,-1.986 -1.659,-3.005 0.54,-3.095c0.015,-0.001 47.197,-0.3 56.9,0.943c1.604,0.205 1.023,0.806 1.495,2.295Z" style="fill:#fcfcfc;"/><path d="M366.298,377.817c0.778,-3.249 5.293,-20.703 5.544,-21.504c0.503,-1.609 2.207,0.155 2.338,0.29c1.227,1.27 2.389,2.602 3.62,3.869c16.551,17.043 30.375,25.013 25.466,25.217c-19.992,0.832 -33.587,-0.082 -36.501,-0.277c-3.644,-0.245 -1.063,-5.313 -0.467,-7.596Z" style="fill:#fbfbfb;"/><path d="M306.866,122.825c-4.71,-7.854 -4.512,-7.834 -8.73,-15.951c-3.376,-6.497 2.267,-6.998 16.888,-13.41c4.581,-2.009 4.273,0.504 6.448,4.957c6.029,12.344 9.808,14.233 3.742,17.481c-15.215,8.146 -16.886,7.494 -18.348,6.923Z" style="fill:#111;"/><path d="M508.201,400.141c2.826,0.001 10.289,-0.134 11.8,0.258c2.31,0.598 23.54,11.755 23.584,11.819c1.327,1.922 -1.733,-0.42 -28.058,8.079c-4.548,1.468 -5.675,-5.529 -25.05,-18.219c-4.001,-2.621 5.36,-1.924 17.725,-1.937Z" style="fill:#fbfbfb;"/><path d="M272.458,415.441c2.943,-4.31 4.156,-1.239 18.181,0.321c3.669,0.408 5.366,13.652 5.145,16.801c-0.402,5.73 -4.202,0.322 -4.262,0.263c-5.139,-5.013 -1.587,10.682 -8.498,8.868c-17.58,-4.614 -18.522,-9.857 -10.566,-26.254Z" style="fill:#fbfbfb;"/><path d="M416.064,603.359c7.458,-0.261 6.372,3.013 21.473,10.218c9.227,4.402 9.983,4.479 9.382,5.333c-0.509,0.723 -45.158,0.183 -49.084,0.135c-4.365,-0.053 -2.129,-16.663 2.149,-16.45c8.044,0.402 7.966,0.669 16.08,0.764Z" style="fill:#fbfbfb;"/><path d="M581.082,290.364c-14.123,1.063 -22.857,0.705 -23.145,4.043c-0.345,3.999 1.522,6.053 -2.598,6.041c-15.16,-0.044 -16.663,-0.242 -15.749,-1.64c2.029,-3.102 2.67,-3.044 2,-6.637c-0.403,-2.16 3.143,-4.432 4.078,-4.465c13.437,-0.476 13.383,0.782 26.786,0.014c1.93,-0.111 2.245,-2.541 -1.049,-2.621c-22.963,-0.558 -25.3,1.17 -25.012,-2.521c0.301,-3.863 2.276,-2.748 32.523,-3.659c1.399,-0.042 2.835,-0.085 14.962,9.063c1.212,0.914 1.459,1.773 -0.052,1.829c-2.188,0.08 -2.126,-0.141 -12.744,0.555Z" style="fill:#f9f9f9;"/><path d="M394.956,587.994c-0.52,2.954 0.584,4.315 -2.467,4.382c-3.684,0.081 -44.607,0.984 -46.064,-0.166c-0.965,-0.761 -2.044,-11.433 1.082,-11.484c3.75,-0.061 44.681,-0.726 46.883,0.102c0.985,0.37 0.601,6.592 0.565,7.166Z" style="fill:#fbfbfb;"/><path d="M442.749,118.754c-0.304,-0.298 -3.462,-2.379 1.289,-3.973c21.47,-7.204 21.689,-11.315 26.517,-7.713c8.313,6.203 15.025,6.654 14.136,9.453c-0.48,1.51 -13.167,8.199 -18.401,10.397c-5.978,2.511 -7.51,4.337 -23.542,-8.164Z" style="fill:#151515;"/><path d="M237.622,598.674c-0.3,3.389 0.756,4.872 -2.668,4.92c-2.472,0.035 -29.667,0.42 -30.908,-0.066c-2.176,-0.851 -1.687,-15.287 -0.268,-15.777c0.543,-0.188 32.451,-0.524 33.305,0.236c1.169,1.04 0.508,1.3 0.539,10.687Z" style="fill:#fbfafb;"/><path d="M351.738,138.959c-18.771,11.442 -19.547,9.991 -20.257,9.552c-2.41,-1.487 -13.885,-12.049 -14.307,-13.689c-0.439,-1.702 -0.881,-3.42 18.601,-11.7c2.609,-1.109 3.931,2.695 15.22,11.106c2.526,1.882 3.155,2.71 0.744,4.73Z" style="fill:#0e0e0e;"/><path d="M108.18,516.171c-7.007,3.649 -7.201,2.963 -14.456,5.859c-7.679,3.065 23.901,18.59 16.898,18.592c-24.776,0.005 -25.232,0.616 -26.426,-1.131c-11.904,-17.417 -11.744,-19.035 -10.019,-19.209c16.226,-1.636 16.195,-1.304 32.211,-4.787c0.15,-0.033 0.133,0.05 1.792,0.676Z" style="fill:#fafafa;"/><path d="M279.75,221.399c2.201,-0.883 17.526,-1.212 37.771,-3.926c30.757,-4.122 30.546,-4.949 33.214,-5.303c10.679,-1.417 22.079,-4.879 22.485,-2.468c0.826,4.897 0.628,4.84 2.269,9.615c1.243,3.616 -3.025,0.568 -28.016,0.454c-38.605,-0.176 -38.715,0.676 -39.781,1.604c-1.582,1.377 -11.052,1.042 -27.551,1.116l-0.392,-1.093Z" style="fill:#f9f9f9;"/><path d="M565.188,225.072c16.436,-8.374 17.276,-8.727 19.006,-6.722c0.792,0.918 8.887,10.298 9.479,11.826c0.57,1.47 0.825,2.691 -15.696,11.914c-4.773,2.664 -4.835,0.174 -8.012,-4.233c-7.218,-10.012 -6.432,-10.955 -4.776,-12.785Z" style="fill:#0e0e0e;"/><path d="M514.64,446.912c-4.332,0.343 -5.359,-1.227 -8.853,3.673c-2.483,3.483 -27.548,-9.99 -59.687,-8.98c-1.787,0.056 -11.054,1.455 -11.123,-1.51c-0.049,-2.086 1.22,-2.242 26.078,0.008c47.506,4.301 47.513,1.799 95.287,2.383c2.535,0.031 0.279,2.497 -3.137,2.596c-19.363,0.557 -19.271,0.931 -38.566,1.83Z" style="fill:#f6f6f6;"/><path d="M181.391,353.96c-11.284,-0.547 -50.679,-0.32 -51.568,-0.371c-3.277,-0.186 2.641,-3.315 3.36,-5.644c1.573,-5.093 3.287,-3.135 8.545,-2.881c44.531,2.157 44.497,1.346 48.363,1.534c0.911,0.044 5.158,5.676 -8.7,7.362Z" style="fill:#fafafa;"/><path d="M140.927,499.239c7.074,-8.272 10.012,-14.962 11.451,-15.389c2.78,-0.825 13.996,6.867 15.113,7.633c1.3,0.892 2.749,2.373 -9.736,17.135c-2.984,3.528 -9.837,-1.877 -10.552,-2.28c-7.064,-3.979 -7.407,-4.721 -6.276,-7.1Z" style="fill:#0e0e0e;"/><path d="M275.729,278.016c21.075,3.44 22.463,4.239 21.313,5.574c-1.106,1.283 -2.385,-0.828 -18.506,10.277c-4.442,3.06 -3.845,-2.999 -28.545,-10.252c-4.026,-1.182 7.891,-3.309 13.783,-4.78c5.929,-1.48 5.91,-1.698 11.956,-0.82Z" style="fill:#fbfbfb;"/><path d="M622.859,385.755c22.004,0.436 37.731,-0.396 38.187,0.012c0.686,0.614 0.184,1.28 -10.292,5.145c-25.443,9.385 -26.028,3.113 -52.555,-2.219c-15.992,-3.214 7.453,-2.529 24.66,-2.938Z" style="fill:#f8f8f8;"/><path d="M407.806,296.541c-2.744,19.95 -2.53,33.03 -5.524,29.804c-5.003,-5.393 -5.956,-0.77 -10.873,0.051c-3.911,0.653 1.003,-2.2 15.354,-52.171c0.265,-0.922 1.427,-1.654 2.169,-0.522c0.415,0.632 -0.999,21.013 -1.126,22.838Z" style="fill:#f9f9f9;"/><path d="M306.76,502.241c11.759,-29.612 9.836,-30.982 14.213,-33.803c5.87,-3.783 1.971,3.658 -15.915,57.53c-2.755,8.297 -2.921,13.017 -8.058,14.32c-4.658,1.182 0.596,-8.165 9.76,-38.047Z" style="fill:#f7f7f7;"/><path d="M559.402,268.444c-4.432,3.753 -14.475,12.333 -16.627,10.443c-4.973,-4.368 -8.086,-7.164 -7.416,-9.027c3.966,-11.028 6.482,-12.366 20.148,-20.209c0.262,-0.15 6.444,-3.698 3.729,0.573c-3.041,4.784 -8.176,2.55 -10.441,15.204c-0.376,2.098 1.866,2.38 2.414,1.202c2.376,-5.105 3.741,-3.551 8.67,-6.025c5.246,-2.633 5.617,-2.016 5.653,-1.548c0.001,0.011 -2.087,4.365 -6.13,9.386Z" style="fill:#f9f9f9;"/><path d="M317.816,514.13c-5.094,15.688 -7.267,27.797 -13.284,26.906c-2.406,-0.356 -0.48,-1.727 8.367,-29.233c6.871,-21.365 14.05,-38.56 13.503,-42.824c-0.402,-3.129 6.109,-1.381 3.56,8.517c-0.77,2.99 -0.993,2.901 -12.145,36.634Z" style="fill:#f6f6f6;"/><path d="M486.748,301.832c-4.809,3.003 -5.369,1.709 -9.711,-1.999c-12.574,-10.739 -18.312,-13.291 -12.816,-13.241c39.14,0.361 39.793,0.659 39.562,1.318c-0.571,1.628 -15.625,12.869 -17.035,13.922Z" style="fill:#fbfbfb;"/><path d="M291.724,260.784c3.149,-0.33 24.227,-2.536 39.555,-1.343c3.696,0.288 -6.59,8.619 -7.462,8.69c-14.46,1.174 -14.416,0.803 -28.866,2.37c-2.516,0.273 -7.798,-5.89 -9.037,-6.799c-4.037,-2.963 0.829,-2.393 5.811,-2.918Z" style="fill:#fafafa;"/><path d="M303.389,111.221c-3.011,-5.952 -3.06,-5.93 -3.164,-6.499c-0.25,-1.366 -0.147,-2.117 15.119,-8.541c1.315,-0.553 2.448,-0.661 9.803,14.89c0.807,1.706 -0.297,2.155 -14.053,8.762c-3.61,1.734 -5.718,-4.846 -7.705,-8.612Z" style="fill:#fbfbfb;"/><path d="M574.602,518.574c-6.899,-0.947 -6.798,-0.901 -13.816,-1.629c-4.178,-0.433 6.037,-10.785 7.461,-11.299c0.354,-0.128 16.321,0.343 17.249,0.474c0.577,0.082 4.952,8.75 11.965,13.015c5.396,3.281 -6.042,1.237 -22.859,-0.561Z" style="fill:#fafafa;"/><path d="M415.453,305.107c-1.559,26.313 -0.891,33.314 -3.644,30.977c-8.161,-6.927 -4.541,-9.063 -2.962,-24.546c1.978,-19.393 2.053,-19.313 2.604,-38.75c0.099,-3.494 2.27,0.078 2.369,0.24c2.75,4.526 3.177,5.142 1.634,32.078Z" style="fill:#f7f7f7;"/><path d="M34.68,441.099c-0.419,-0.599 -4.932,-7.053 -5.227,-7.501c-2.705,-4.112 3.945,1.644 10.724,4.919c12.955,6.26 22.923,5.085 20.41,9.221c-6.163,10.145 -5.866,16.58 -6.769,16.815c-1.984,0.516 -17.729,-21.485 -19.138,-23.455Z" style="fill:#fafafa;"/><path d="M132.113,338.853c-0.266,-0.015 -5.032,-0.275 -3.015,-1.426c6.646,-3.794 12.338,-2.536 13.72,-2.458c51.141,2.882 51.069,2.402 55.501,2.749c2.199,0.172 -1.83,4.486 -3.21,5.635c-2.262,1.882 -50.108,-0.316 -50.434,-0.392c-17.17,-4.032 53.222,1.734 40.067,-2.757c-0.858,-0.293 -30.061,-1.229 -45.136,-1.353c-3.766,-0.119 -3.671,-0.163 -7.493,0.003Z" style="fill:#f3f3f3;"/><path d="M54.064,604.055c2.315,-12.817 0.19,-12.694 -0.257,-13.93c-0.549,-1.516 -0.255,-1.932 7.657,-6.261c1.348,-0.738 1.422,-0.515 19.208,-0.22c4.711,0.078 -8.28,10.703 -8.98,11.308c-1.656,1.43 -15.075,10.251 -16.755,10.314c-1.633,0.061 -0.816,-1.132 -0.872,-1.211Z" style="fill:#fbfbfb;"/><path d="M467.646,123.282c-5.818,2.714 -6.185,4.569 -11.711,1.328c-10.49,-6.153 -10.461,-7.363 -9.57,-7.787c0.532,-0.254 18.365,-7.391 19.963,-8.031c2.201,-0.881 8.007,4.371 11.765,5.782c5.884,2.209 -4.251,5.689 -10.447,8.708Z" style="fill:#fafafa;"/><path d="M338.68,127.443c4.775,4.499 4.913,4.157 9.958,8.244c2.064,1.672 -1.435,2.882 -8.931,7.185c-5.519,3.169 -6.396,4.189 -11.102,-0.031c-7.002,-6.279 -9.391,-8.361 -6.59,-9.858c3.088,-1.651 9.749,-5.025 10.6,-5.456c2.687,-1.361 2.999,-2.433 6.064,-0.083Z" style="fill:#fbfbfb;"/><path d="M322.434,436.85c-0.634,8.368 -4.162,6.03 -12.409,4.909c-13.248,-1.801 -12.866,-3.771 -12.574,-4.808c1.351,-4.793 1.091,-4.752 0.905,-9.673c-0.058,-1.538 1.024,-0.678 19.144,1.948c0.422,0.061 4.692,0.68 5.155,1.35c0.286,0.413 -0.015,0.437 -0.22,6.274Z" style="fill:#fafafa;"/><path d="M466.249,342.614c-0.106,0.044 -0.583,0.905 -2.01,0.842c-17.532,-0.779 -17.467,-0.024 -27.895,-0.537c-1.463,-0.072 -1.942,-0.608 -1.869,-17.455c0.009,-2.167 1.027,-2.004 2.797,-0.764c13.981,9.794 13.967,9.698 28.977,17.913Z" style="fill:#fafafa;"/><path d="M511.39,237.327c15.903,-2.607 15.806,-3.048 17.187,-3.272c1.054,-0.171 1.503,-0.085 7.609,10.969c1.696,3.071 -3.492,1.564 -4.438,1.488c-2.131,-0.17 -4.263,-0.327 -6.394,-0.503c-24.552,-2.026 -25.294,-2.127 -25.589,-4.18c-0.612,-4.25 1.522,-3.695 11.625,-4.502Z" style="fill:#fafafa;"/><path d="M311.094,445.033c9.855,0.255 10.866,0.259 10.738,2.558c-0.475,8.504 -0.093,13.774 -3.141,12.494c-21.518,-9.033 -22.348,-8.387 -22.615,-10.359c-0.008,-0.06 1.566,-7.259 2.104,-7.501c0.964,-0.434 0.85,0.374 12.915,2.808Z" style="fill:#f9f9f9;"/><path d="M574.51,223.403c2.691,-1.367 5.998,-3.666 7.664,-3.055c0.36,0.132 7.965,9.396 8.138,9.784c0.509,1.144 0.578,2.043 -12.717,9.117c-3.95,2.102 -5.18,-2.958 -9.595,-9.044c-2.747,-3.787 3.487,-5.227 6.51,-6.803Z" style="fill:#fafafa;"/><path d="M156.432,308.317c0.116,-3.435 -0.809,-5.583 2.494,-4.439c1.716,0.594 18.749,6.493 21.475,7.367c14.831,4.757 16.18,3.648 16.581,6.71c0.321,2.453 -1.58,2.614 -30.682,-3.887c-6.379,-1.425 -8.858,0.651 -9.867,-5.751Z" style="fill:#f9f9f9;"/><path d="M387.836,255.987c-1.376,-2.817 -1.458,-2.715 -2.54,-5.678c-0.201,-0.551 -2.5,-6.841 1.849,-7.094c1.242,-0.072 17.888,16.622 18.012,16.892c0.808,1.757 -7.661,8.882 -8.441,9.537c-1.106,0.93 -1.605,0.111 -8.88,-13.658Z" style="fill:#fafafa;"/><path d="M425.087,592.408c0.145,-0.147 1.816,-1.841 1.816,-1.841c12.029,-1.629 11.859,1.781 11.81,2.75c-0.79,15.786 -0.197,16.357 -1.501,16.651c-0.185,0.042 -20.951,-9.204 -17.142,-13.663c1.799,-2.106 3.606,-0.176 5.017,-3.897Z" style="fill:#fafafa;"/><path d="M435.922,547.079c1.612,-3.012 2.38,-1.807 5.846,-1.829c1.886,-0.012 17.306,-0.107 23.573,-0.065c5.199,0.035 3.767,2.322 3.657,7.463c-0.083,3.881 -2.333,1.602 -20.837,-0.693c-10.841,-1.344 -13.019,-0.813 -12.238,-4.877Z" style="fill:#f9f9f9;"/><path d="M567.586,488.882c-21.837,-20.881 -21.367,-21.711 -23.917,-22.293c-2.132,-0.486 -7.175,5.721 -7.2,5.772c-0.871,1.786 15.373,15.329 25.069,24.748c2.439,2.37 0.048,3.189 -0.765,2.808c-0.834,-0.391 -25.509,-23.592 -26.553,-24.759c-3.516,-3.93 7.744,-13.337 10.414,-11.494c1.563,1.078 24.941,23.197 26.511,24.831c1.059,1.101 0.141,3.418 -1.846,1.927c-0.614,-0.461 -1.099,-1.079 -1.713,-1.539Z" style="fill:#0d0d0d;"/><path d="M147.97,503.657c-1.42,-0.842 -5.247,-2.222 -3.66,-4.368c7.905,-10.688 7.563,-10.946 8.403,-11.738c1.61,-1.516 12.146,5.309 12.303,6.178c0.206,1.146 -8.566,12.499 -9.3,12.865c-1.218,0.608 -7.164,-2.621 -7.747,-2.937Z" style="fill:#fbfbfb;"/><path d="M435.81,399.312c1.851,18.273 4.688,26.968 0.284,20.8c-2.085,-2.921 -10.446,-10.728 -15.71,-20.764c-3.421,-6.521 2.405,-1.064 4.187,-0.753c2.319,0.404 2.171,-0.344 8.498,-3.834c2.834,-1.563 2.647,3.941 2.741,4.551Z" style="fill:#f9f9f9;"/><path d="M204.946,532.235c1.486,-0.717 1.683,0.225 20.347,-3.365c1.298,-0.25 12.268,0.945 11.89,4.449c-0.705,6.531 0.626,11.131 -5.169,8.06c-13.647,-7.232 -17.529,-7.444 -27.807,-8.392l0.74,-0.752Z" style="fill:#fafafa;"/><path d="M158.854,362.27c-20.05,-2.256 -22.101,-0.696 -22.29,-2.558c-0.504,-4.969 3.45,-2.854 40.571,-3.334c4.685,-0.061 -3.481,3.993 -4.169,4.623c-3.479,3.181 -4.545,2.002 -14.112,1.269Z" style="fill:#f7f7f7;"/><path d="M276.045,354.443c-1.252,5.816 -0.115,6.871 -2.527,7.382c-0.242,0.051 -18.848,0.265 -19.187,-0.05c-0.638,-0.592 -0.691,-1.029 5.409,-9.444c1.383,-1.908 6.92,-1.259 11.655,-1.266c2.801,-0.004 5.428,-1.232 4.65,3.379Z" style="fill:#fafafa;"/><path d="M588.549,503.546c-8.068,-0.523 -7.958,-0.355 -15.984,-0.593c-5.661,-0.167 14.544,-14.618 16.002,-14.664c1.144,-0.036 1.645,0.31 3.202,13.949c0.209,1.833 -0.863,1.008 -3.22,1.307Z" style="fill:#f9f9f9;"/><path d="M511.254,486.065c-0.596,2.692 0.09,2.609 1.948,4.64c0.093,0.102 1.275,1.394 -0.793,1.529c-13.001,0.847 -13.063,-0.644 -13.107,-1.7c-0.398,-9.586 -0.226,-12.041 2.459,-12.061c13.362,-0.1 14.077,0.16 13.844,1.247c-0.129,0.602 -0.329,0.459 -4.35,6.345Z" style="fill:#f9f8f9;"/><path d="M171.801,294.673c-10.282,1.605 -10.773,1.627 -10.768,0.763c0.003,-0.453 11.017,-8.401 16.843,-16.506c2.012,-2.799 1.501,1.309 5.006,9.918c0.977,2.399 2.949,3.291 0.368,3.921c-1.01,0.247 -10.532,1.758 -11.449,1.904Z" style="fill:#f9f9f9;"/><path d="M171.74,533.873c15.89,1.231 15.933,0.841 17.26,1.235c2.109,0.627 1.161,5.351 0.888,5.638c-0.757,0.796 -27.926,0.352 -28.145,0.287c-0.459,-0.136 4.392,-6.368 9.998,-7.16Z" style="fill:#fafafa;"/><path d="M658.217,541.504c-35.493,-0.018 -35.578,0.03 -36.624,-0.515c-4.28,-2.229 8.039,-2.22 8.762,-2.22c49.585,0.034 49.636,-0.142 50.211,0.205c5.432,3.273 -11.095,2.507 -22.35,2.529Z" style="fill:#202120;"/><path d="M533.921,432.003c22.547,0.202 24.123,-0.535 23.829,1.742c-0.258,1.997 -59.544,0.853 -59.927,0.567c-4.537,-3.404 11.086,-1.974 36.098,-2.309Z" style="fill:#131414;"/><path d="M568.198,352.64c34.415,0.584 62.489,0.491 51.324,3.522c-0.646,0.175 -54.241,-0.456 -55.268,-1.163c-2.774,-1.912 3.577,-2.335 3.944,-2.359Z" style="fill:#171717;"/><path d="M282.189,404.295c9.822,1.529 13.18,1.752 12.95,3.644c-0.884,7.274 -4.087,5.396 -18.267,2.732c-4.748,-0.892 -4.763,-2.348 -3.004,-6.822c0.45,-1.146 7.668,0.314 8.321,0.446Z" style="fill:#f9f9f9;"/><path d="M554.279,332.368c17.246,0.123 18.139,0.162 17.979,1.597c-0.188,1.683 -7.181,1.163 -8.338,1.161c-45.717,-0.094 -45.823,0.244 -46.82,-0.421c-3.911,-2.609 1.742,-2.27 37.178,-2.336Z" style="fill:#191919;"/><path d="M484.647,265.06c-45.563,-1.569 -49.726,-1.12 -47.099,-3.838c0.853,-0.883 52.515,0.564 53.056,2.247c0.151,0.47 0.26,1.521 -5.957,1.591Z" style="fill:#151515;"/><path d="M378.318,232.67c-0.48,-0.338 -2.758,-0.847 -4.302,-4.644c-0.108,-0.266 -1.268,-3.118 0.087,-3.588c4.268,-1.481 4.576,2.335 12.752,8.155c5.206,3.705 -5.086,11.406 -6.108,11.649c-6.754,1.607 3.046,-6.517 -2.429,-11.572Z" style="fill:#f7f7f7;"/><path d="M526.503,314.776c3.853,1.812 19.338,0.489 47.066,0.889c0.217,0.003 7.643,2.671 0.014,2.714c-44.894,0.249 -45.19,0.427 -48.386,-1.761c0.435,-0.614 0.87,-1.227 1.306,-1.841Z" style="fill:#090a09;"/><path d="M178.144,531.567c-3.934,-0.383 -4.028,-0.147 -4.241,-0.413c-0.093,-0.116 -0.574,-0.713 0.386,-1.821c12.52,-14.464 13.525,-15.369 14.148,-13.909c0.339,0.795 -1.098,15.31 -1.15,15.546c-0.269,1.239 -8.411,0.65 -9.142,0.597Z" style="fill:#f9f9f9;"/><path d="M542.657,282.446c1.892,3.621 -2.921,7.657 -5.371,5.33c-9.799,-9.306 -11.642,-10.486 -9.623,-12.542c5.028,-5.121 5.846,-1.315 11.165,3.555c1.982,1.814 1.834,1.865 3.829,3.657Z" style="fill:#fafafa;"/><path d="M560.708,324.692c7.272,0.022 12.338,-0.161 13.116,0.504c1.186,1.013 -0.382,1.961 -0.426,1.976c-0.831,0.3 -44.574,0.098 -44.728,0.057c-12.196,-3.259 25.886,-2.542 32.038,-2.537Z" style="fill:#0e0e0e;"/><path d="M124.582,547.283c-0.457,0.713 -0.915,1.425 -1.372,2.138c-3.192,-3.287 -3.968,-1.639 -25.404,-1.777c-5.907,-0.038 -3.789,-4.2 -1.039,-4.247c19.974,-0.338 20.485,-1.008 27.815,3.886Z" style="fill:#f6f6f6;"/><path d="M555.228,223.377c-6.696,2.736 -16.137,7.203 -16.259,4.595c-0.139,-2.974 2.593,-0.294 33.696,-15.792c0.377,-0.188 5.565,-2.773 5.26,-0.313c-0.229,1.847 -18.553,9.655 -22.697,11.509Z" style="fill:#0f0f0f;"/><path d="M289.611,228.532c-3.859,0.012 -14.966,1.084 -12.333,-2.441c1.41,-1.888 1.859,-2.068 29.435,-1.065c0.313,0.011 2.897,0.105 2.799,2.736c-0.039,1.054 -6.097,0.764 -19.901,0.77Z" style="fill:#f7f7f7;"/><path d="M553.063,197.529c-22.237,8.082 -23.926,7.635 -23.673,5.703c0.265,-2.021 9.043,-1.91 34.389,-13.102c5.263,-2.324 5.249,-0.188 5.085,0.185c-0.558,1.273 -0.705,1.61 -15.802,7.214Z" style="fill:#101010;"/><path d="M531.907,192.953c11.595,-3.74 32.825,-11.352 33.096,-11.359c13.684,-0.322 -35.539,15.227 -36.417,15.14c-4.561,-0.451 2.95,-3.625 3.321,-3.782Z" style="fill:#171717;"/><path d="M543.766,210.185c13.518,-5.191 13.324,-5.391 26.747,-10.66c1.295,-0.509 2.545,0.238 2.076,1.664c-0.455,1.385 -36.224,15.008 -37.603,14.991c-7.755,-0.098 7.978,-5.709 8.779,-5.995Z" style="fill:#1a1a1a;"/><path d="M543.665,217.484c24.064,-8.956 28.995,-13.398 30.699,-12.648c3.597,1.584 -9.133,6.724 -11.641,7.819c-3.039,1.327 -26.248,11.98 -26.705,8.859c-0.253,-1.726 0.699,-1.229 7.647,-4.031Z" style="fill:#131313;"/><path d="M529.58,67.607c30.732,4.28 37.474,8.43 33.364,9.439c-0.859,0.211 -20.085,-5.333 -34.372,-6.75c-0.407,-0.04 -7.519,-0.746 -4.198,-2.914c0,0 4.79,0.207 5.206,0.225Z" style="fill:#161616;"/><path d="M509.263,499.422c-6.396,-0.006 -14.383,0.613 -12.988,-1.524c3.067,-4.698 4.121,-3.105 9.783,-3.079c9.315,0.043 9.981,-1.523 15.332,2.916c3.546,2.941 -6.136,1.805 -12.128,1.687Z" style="fill:#f9f9f9;"/><path d="M36.422,592.557c4.454,-7.001 5.496,-6.105 10.201,-13.001c1.611,-2.361 11.973,2.08 10.247,3.879c-0.577,0.602 -7.439,3.656 -8.097,3.95c-6.33,2.818 -7.561,3.987 -12.351,5.172Z" style="fill:#f8f8f8;"/><path d="M535.988,61.165c2.375,0.374 35.584,5.609 28.739,8.776c-0.833,0.385 -20.981,-5.079 -34.023,-7.023c-0.397,-0.059 -7.349,-1.095 -4.092,-2.896c1.356,-0.75 1.423,-0.253 9.376,1.144Z" style="fill:#181818;"/><path d="M367.826,608.755c-12.818,-0.021 -16.694,0.113 -17.165,-0.404c-2.115,-2.321 3.921,-2.324 4.313,-2.324c30.076,-0.015 34.337,-0.262 35.048,0.487c2.787,2.936 -8.009,2.225 -22.197,2.241Z" style="fill:#030303;"/><path d="M550.078,59.321c-10.734,-2.711 -20.431,-3.303 -21.298,-4.135c-6.101,-5.854 38.27,4.192 38.478,6.646c0.117,1.384 -0.927,1.46 -17.18,-2.511Z" style="fill:#0d0e0e;"/><path d="M305.805,86.771c6.418,-2.67 6.362,-2.841 7.376,-2.888c0.257,-0.012 3.787,1.095 -0.845,3.098c-30.098,13.018 -29.542,14.704 -32.384,14.639c-8.573,-0.196 20.808,-12.596 25.853,-14.849Z" style="fill:#141414;"/><path d="M536.177,487.119c-8.1,-7.593 -8.18,-7.58 -8.48,-8.492c-1.527,-4.641 6.083,2.576 6.498,2.969c13.98,13.256 27.859,24.381 22.231,23.814c-2.172,-0.219 -1.741,-0.937 -20.248,-18.291Z" style="fill:#0c0c0c;"/><path d="M544.566,48.239c6.539,1.266 28.883,5.352 24.638,8.129c-2.413,1.578 -2.366,-1.756 -35.327,-7.135c-4.624,-0.755 -2.552,-2.572 -2.287,-2.666c1.616,-0.568 11.95,1.469 12.977,1.672Z" style="fill:#151616;"/><path d="M546.853,44.333c-11.22,-2.831 -11.528,-1.856 -12.282,-2.517c-6.991,-6.121 36.817,4.718 37.889,6.12c3.566,4.665 -6.649,-0.525 -25.607,-3.604Z" style="fill:#0e0e0e;"/><path d="M253.194,249.004c-15.551,-0.303 -15.474,-0.658 -31.061,-0.867c-2.063,-0.028 -2.284,-2.648 1.047,-2.538c37.588,1.249 37.988,0.875 38.229,1.741c0.179,0.646 0.159,1.766 -8.215,1.663Z" style="fill:#121212;"/><path d="M563.865,19.322c22.541,4.546 23.479,6.47 22.081,7.715c-1.649,1.468 -5.753,-2.484 -30.538,-6.437c-0.621,-0.099 -9.466,-1.51 -7.154,-3.259c1.269,-0.96 14.514,1.791 15.61,1.981Z" style="fill:#181818;"/><path d="M124.582,547.283c4.175,2.928 5.717,2.308 5.66,7.466c-0.035,3.161 1.223,10.204 -2.384,10.914c-2.437,0.48 -3.441,1.205 -3.575,-1.217c-0.418,-7.529 -0.158,-7.478 -1.072,-15.025c0.457,-0.713 0.915,-1.425 1.372,-2.138Z" style="fill:#f5f5f5;"/><path d="M318.349,126.795c-8.259,4.031 -26.051,13.094 -20.058,6.937c0.483,-0.496 32.728,-16.554 34.243,-16.368c4.265,0.522 -3.832,4.393 -4.287,4.611c-0.795,0.38 -0.742,0.404 -9.899,4.821Z" style="fill:#0f100f;"/><path d="M543.633,36.762c-0.421,-0.076 -5.267,-0.951 -5.267,-0.951c-13.459,-6.24 36.703,3.283 37.159,6.773c0.336,2.572 -1.627,0.226 -31.892,-5.822Z" style="fill:#0f0f0f;"/><path d="M595.007,495.616c0.036,-2.35 -0.154,-2.466 0.038,-2.529c1.011,-0.329 36.847,0.741 37.356,0.887c12.634,3.622 -25.952,1.937 -37.394,1.642Z" style="fill:#111212;"/><path d="M545.644,27.979c24.209,4.525 36.786,7.667 32.982,9.811c-2.419,1.364 -2.356,-1.339 -33.955,-7.225c-0.326,-0.061 -5.891,-1.097 -3.093,-2.752c0.28,-0.166 0.297,0.012 4.066,0.166Z" style="fill:#141515;"/><path d="M250.93,336.363c0.28,0.192 4.718,3.229 2.139,3.669c-1.617,0.276 -33.436,-17.204 -33.519,-18.873c-0.179,-3.625 2.165,-0.232 31.38,15.205Z" style="fill:#0d0d0c;"/><path d="M759.057,581.026c-4.436,-1.167 -9.011,-2.116 -21.302,-8.52c-3.166,-1.65 -1.198,-3.683 0.811,-2.725c29.1,13.876 30.738,9.331 32.932,11.035c5.099,3.961 -11.467,0.418 -12.441,0.21Z" style="fill:#111;"/><path d="M58.991,549.027c-27.98,17.26 -31.983,15.615 -30.571,13.35c1.956,-3.136 4.144,0.181 31.004,-16.949c0.204,-0.13 2.188,-1.395 3.009,-0.316c1.19,1.563 -0.234,1.413 -3.442,3.914Z" style="fill:#0e0e0e;"/><path d="M59.326,558.127c-27.742,15.237 -30.885,15.623 -30.131,12.677c0.675,-2.64 2.57,-0.438 30.134,-15.888c4.833,-2.709 4.215,0.521 4.01,0.775c-0.236,0.292 -0.341,0.421 -4.012,2.437Z" style="fill:#0e0e0e;"/><path d="M54.653,531.805c-10.56,6.615 -28.865,16.835 -30.334,15.057c-2.128,-2.576 4.504,-2.037 30.366,-18.322c0.201,-0.127 2.305,-1.452 2.962,-0.257c0.739,1.346 -2.892,3.452 -2.993,3.522Z" style="fill:#0f0f0f;"/><path d="M60.091,566.196c-2.356,1.343 -30.667,17.483 -31.186,13.291c-0.515,-4.159 3.876,0.007 31.629,-16.813c6.453,-3.911 1.804,2.194 1.613,2.314c-0.161,0.102 -0.152,0.089 -2.056,1.208Z" style="fill:#0e0e0e;"/><path d="M766.376,588.368c3.865,0.807 4.586,0.19 4.686,1.697c0.407,6.138 -45.302,-11.074 -34.705,-12.08c2.53,-0.24 1.411,3.637 30.019,10.383Z" style="fill:#131413;"/><path d="M42.913,548.919c-7.984,3.952 -16.092,8.603 -16.19,5.886c-0.11,-3.039 7.217,-2.074 30.655,-17.791c6.503,-4.361 1.768,2.221 1.58,2.348c-7.793,5.244 -7.878,4.902 -16.045,9.556Z" style="fill:#0f0f0f;"/><path d="M762.212,598.34c-2.146,-0.376 -10.631,-1.109 -24.602,-8.417c-5.876,-3.073 0.603,-2.752 0.801,-2.653c25.891,12.913 31.51,7.122 33.053,10.517c1.216,2.675 -8.526,0.7 -9.252,0.552Z" style="fill:#0d0d0d;"/><path d="M191.182,362.727c-1.598,-1.685 -3.184,-1.772 -1.458,-3.309c0.139,-0.124 0.71,-0.632 2.29,0.452c19.797,13.583 28.931,16.565 29.948,18.15c3.589,5.592 -12.834,-3.477 -30.779,-15.294Z" style="fill:#0b0b0b;"/><path d="M556.35,23.678c2.061,0.417 37.347,7.56 24.806,8.697c-2.796,0.253 -2.322,-2.228 -34.315,-7.379c-2.915,-0.469 -2.719,-3.043 -0.065,-2.772c0,0 8.808,1.338 9.574,1.454Z" style="fill:#141514;"/><path d="M50.694,522.649c-17.257,11.338 -36.043,19.132 -29.807,13.041c1.891,-1.847 2.869,-0.151 28.995,-15.853c4.28,-2.572 3.915,0.251 3.767,0.516c-0.146,0.261 -0.219,0.17 -2.955,2.296Z" style="fill:#0d0d0d;"/><path d="M763.315,573.637c-2.026,-0.569 -16.446,-4.618 -24.472,-9.655c-3.049,-1.913 -0.917,-3.505 0.759,-2.687c29.872,14.568 33.423,9.888 33.171,12.719c-0.187,2.106 -7.607,-0.017 -9.458,-0.377Z" style="fill:#111;"/><path d="M203.642,357.978c21.798,14.289 28.456,15.382 23.754,16.507c-1.907,0.456 -33.229,-17.74 -31.979,-20.082c0.909,-1.702 2.143,-0.428 8.225,3.574Z" style="fill:#0f0f0f;"/><path d="M237.055,336.247c6.048,3.48 18.07,9.098 12.935,9.643c-0.995,0.106 -33.686,-17.014 -33.013,-19.307c0.537,-1.83 1.537,-0.727 20.078,9.664Z" style="fill:#0c0c0c;"/><path d="M229.427,364.345c0.393,0.209 6.866,3.64 3.543,4.292c-2.169,0.425 -37.767,-19.411 -31.135,-20.321c2.567,-0.352 2.981,3.113 27.592,16.029Z" style="fill:#0e0e0e;"/><path d="M226.256,349.248c-1.825,-1.176 -16.206,-9.462 -16.267,-10.953c-0.104,-2.52 5.233,0.936 5.618,1.186c21.088,13.655 26.408,14.287 27.519,16.154c3.422,5.749 -15.777,-5.779 -16.87,-6.387Z" style="fill:#0f0f0f;"/><path d="M238.394,347.559c-21.959,-12.077 -22.078,-12.177 -23.751,-13.588c-1.59,-1.341 -0.695,-3.573 1.988,-1.89c6.618,4.151 29.696,16.645 30.055,16.993c6.887,6.667 -7.699,-1.194 -8.292,-1.514Z" style="fill:#0e0e0d;"/><path d="M593.971,499.001c9.241,1.631 39.911,-1.156 37.153,3.022c-1.209,1.831 -28.506,-0.902 -36.673,0.224c-0.306,-3.064 -0.462,-2.984 -0.48,-3.246Z" style="fill:#151515;"/><path d="M450.077,384.36c1.532,-1.203 1.468,-1.417 3.487,-1.304c18.417,1.03 47.769,1.123 54.481,2.062l-0.344,1.488c-12.726,-1.485 -54.246,-0.34 -57.623,-2.245Z" style="fill:#cccdcd;"/><path d="M569.34,471.102c-14.164,-13.916 -15.062,-14.618 -13.66,-15.528c1.964,-1.276 26.357,24.288 26.415,25.235c0.237,3.907 -2.582,0.266 -12.755,-9.707Z" style="fill:#090909;"/><path d="M574.815,467.764c-11.188,-11.277 -15.49,-14.727 -14.219,-15.998c1.825,-1.827 27.018,25.138 27.019,25.842c0.002,3.932 -8.044,-5.091 -12.8,-9.844Z" style="fill:#050505;"/><path d="M598.218,362.569c-8.73,-0.215 -14.748,0.1 -14.724,-1.747c0.017,-1.356 7.618,-1.093 8.286,-1.07c22.09,0.762 27.975,0.194 28.588,1.263c1.613,2.814 -7.345,1.897 -22.15,1.554Z" style="fill:#0b0c0b;"/><path d="M587.376,468.075c0.441,0.452 9.942,10.193 3.426,7.119c-2.404,-1.134 -1.739,-1.943 -23.52,-23.463c-2.089,-2.064 -0.647,-4.307 1.278,-2.461c1.536,1.473 6.992,6.705 18.815,18.804Z" style="fill:#070606;"/><path d="M381.762,602.581c-7.64,-0.001 -39.443,0.713 -28.848,-2.59c1.787,-0.557 59.271,-0.178 28.848,2.59Z" style="fill:#191a19;"/><path d="M152.444,514.047c0.605,0.359 19.803,10.427 11.803,9.578c-0.31,-0.033 -28.85,-15.277 -29.022,-17.093c-0.356,-3.746 8.035,2.589 17.219,7.515Z" style="fill:#0b0b0a;"/><path d="M443.919,249.863c27.936,0.227 29.537,-0.623 29.349,1.721c-0.175,2.176 -33.783,1.018 -34.233,0.548c-1.956,-2.039 4.454,-2.255 4.884,-2.269Z" style="fill:#0c0c0b;"/><path d="M261.777,492.622c-8.65,-4.534 -13.738,-4.465 -12.82,-7.506c1.698,-5.625 3.94,-3.169 10.782,-0.368c3.487,1.428 4.978,2.139 2.038,7.875Z" style="fill:#f9f9f9;"/><path d="M129.855,516.312c23.891,14.735 23.873,14.71 23.887,14.754c1.229,3.903 -2.376,1.577 -20.619,-9.466c-0.704,-0.426 -10.795,-6.535 -7.353,-7.19c1.215,-0.231 1.113,0.178 4.086,1.903Z" style="fill:#0e0e0e;"/><path d="M706.292,572.909c-1.148,2.214 -2.675,2.834 -22.401,-0.881c-13.135,-2.474 3.954,-1.918 4.332,-1.906c7.103,0.231 11.421,-0.292 17.06,0.015c1.866,0.102 1.246,0.911 1.008,2.771Z" style="fill:#f2f2f2;"/><path d="M124.702,530.994c-9.73,-6.11 -9.747,-5.922 -10.511,-6.552c-0.942,-0.778 -0.366,-2.385 0.749,-2.42c0.662,-0.021 26.407,16.109 26.743,16.677c3.59,6.06 -12.684,-5.123 -16.981,-7.704Z" style="fill:#0c0c0c;"/><path d="M506.044,284.376c-7.578,-0.147 -12.194,2.429 -10.421,-4.9c0.504,-2.084 18.405,-0.844 17.424,0.718c-1.862,2.965 -6.368,4.032 -7.003,4.182Z" style="fill:#f8f8f8;"/><path d="M600.355,533.307c3.973,0.051 3.958,0.032 4.292,0.083c-1.784,1.858 -1.218,2.07 -1.211,3.142c0.014,2.147 -0.049,4.296 0.028,6.442c0.113,3.135 14.864,1.188 16.137,2.183c4.537,3.545 -12.969,2.35 -14.91,2.327c-0.358,-0.094 -0.348,-0.06 -3.474,-0.156c-1.015,-6.976 -0.046,-6.996 -0.862,-14.022Z" style="fill:#121212;"/><path d="M129.877,523.804c12.091,7.383 22.421,13.753 16.122,13.065c-0.346,-0.038 -25.607,-15.544 -26.251,-16.639c-0.148,-0.252 -0.547,-2.989 3.609,-0.57c0.534,0.311 0.487,0.366 6.52,4.143Z" style="fill:#0c0c0c;"/><path d="M431.005,93.581c-10.769,1.09 -11.084,0.149 -11.003,-0.73c0.25,-2.735 4.282,0.664 26.138,-4.894c0.348,-0.088 8.681,-2.207 4.156,1.688c-1.753,1.509 -17.73,3.719 -19.291,3.935Z" style="fill:#121212;"/><path d="M410.692,600.198c-0.886,-0.024 -10.276,0.45 -10.618,-1.552c-0.699,-4.085 1.697,-3.979 2.053,-3.963c14.073,0.624 14.471,0.799 14.682,1.965c0.804,4.451 -1.575,3.282 -6.117,3.55Z" style="fill:#f8f8f8;"/><path d="M411.521,362.534c-7.843,4.173 -14.526,8.967 -14.501,5.767c0.013,-1.696 9.381,-5.783 19.149,-11.577c0.493,-0.292 8.579,-5.088 7.031,-1.371c-0.249,0.598 -0.248,0.721 -11.679,7.181Z" style="fill:#0c0c0c;"/><path d="M432.045,104.241c-0.318,0.024 -6.975,0.523 -3.444,-2.018c1.733,-1.247 2.41,1.095 25.884,-6.477c4.28,-1.381 2.248,1.863 1.966,2.008c-4.555,2.344 -22.428,6.074 -24.406,6.487Z" style="fill:#131313;"/><path d="M605.832,578.281c0.738,4.964 -2.721,10.948 -3.662,14.993c-0.668,2.873 9.776,1 9.762,3.257c-0.005,0.922 -0.287,1.986 -11.487,0.863c-2.277,-0.228 0.022,-7.634 0.218,-8.266c2.516,-8.105 1.822,-8.644 5.168,-10.846Z" style="fill:#0f0f0e;"/><path d="M436.361,110.822c-10.843,-0.291 10.625,-5.325 13.87,-6.423c10.204,-3.452 11.212,-4.853 11.567,-2.825c0.612,3.491 -23.323,8.781 -25.437,9.249Z" style="fill:#121212;"/><path d="M391.648,340.967c0.824,-0.429 16.258,-8.463 11.236,-2.909c-0.597,0.661 -21.625,11.38 -23.271,11.992c-1.07,0.398 -3.26,-1.394 0.924,-3.455c0.894,-0.44 4.535,-2.233 11.111,-5.629Z" style="fill:#101010;"/><path d="M526.261,594.17c-30.73,8.09 -31.478,9.523 -35.716,5.988c-6.668,-5.563 2.306,-1.186 2.502,-1.09c5.868,2.862 27.956,-6.373 32.341,-5.878c0.435,0.049 0.438,0.931 0.873,0.98Z" style="fill:#d1d2d1;"/><path d="M24.349,415.095c-0.27,-5.645 2.197,-13.885 2.534,-13.942c1.062,-0.179 7.921,5.114 6.245,6.472c-3.866,3.134 -3.617,3.239 -7.155,6.693c-0.768,0.75 -1.578,0.756 -1.623,0.777Z" style="fill:#f6f6f6;"/><path d="M322.832,243.406c7.076,0.118 7.031,0.09 7.642,0.128c1.582,0.099 1.401,1.526 1.378,1.7c-0.179,1.404 -19.67,1.834 -20.446,-0.221c-0.326,-0.864 0.194,-1.564 11.426,-1.606Z" style="fill:#141414;"/><path d="M258.475,435.788c2.346,-5.733 2.239,-5.745 2.534,-6.192c2.326,-3.529 4.635,-0.641 3.267,3.15c-2.903,8.044 -2.875,8.333 -3.599,8.314c-3.717,-0.094 -2.949,-1.638 -2.201,-5.272Z" style="fill:#f4f4f4;"/><path d="M172.586,595.436c-0.009,5.433 0.148,5.353 0.994,10.761c0.262,1.671 -1.925,2.943 -2.782,-0.064c-3.262,-11.448 1.851,-20.789 2.49,-15.061c0.039,0.351 -0.052,0.323 -0.702,4.364Z" style="fill:#171717;"/><path d="M211.464,319.072c-1.074,0.838 -1.113,1.029 -9.719,1.04c-3.242,0.004 -2.76,-3.621 0.057,-3.855c0.837,-0.069 9.912,-0.823 10.492,-0.299c1.294,1.169 0.129,1.281 -0.83,3.114Z" style="fill:#f7f7f7;"/><path d="M485.965,468.565c1.891,-2.428 5.177,-1.497 13.667,-1.474c0.381,0.001 5.677,0.015 4.335,1.962c-0.587,0.852 -13.879,1.658 -18.002,-0.487Z" style="fill:#1b1b1b;"/><path d="M244.637,211.883c-2.794,0.128 -13.141,-0.542 -13.646,-2.31c-0.247,-0.863 -0.636,-4.274 1.899,-3.366c10.514,3.77 11.18,4.8 11.747,5.676Z" style="fill:#f2f2f2;"/><path d="M601.217,547.329c3.125,0.096 3.116,0.062 3.474,0.156c-2.61,5.234 2.957,11.518 1.146,14.863c-1.543,2.85 -4.796,-7.27 -4.62,-15.019Z" style="fill:#111;"/><path d="M208.14,345.856c-1.659,-1.251 -1.679,-1.211 -1.792,-1.351c-4.813,-5.957 12.232,3.84 13.271,5.726c2.794,5.07 -10.158,-3.543 -11.479,-4.375Z" style="fill:#0d0d0d;"/><path d="M414.959,268.636c-1.666,-0.266 -1.726,-0.161 -1.799,-0.288c-1.773,-3.087 -3.397,-6.585 -3.668,-7.17c-0.629,-1.355 2.398,-4.951 3.151,-5.036c0.75,-0.085 2.19,11.485 2.316,12.494Z" style="fill:#f8f8f8;"/><path d="M294.259,439.934c1.938,9.446 -2.753,9.395 -2.964,7.817c-0.055,-0.412 1.186,-4.46 0.144,-6.47c-0.163,-0.314 -3.058,-5.896 0.323,-4.415c1.338,0.586 1.038,0.884 2.498,3.068Z" style="fill:#f9f9f9;"/><path d="M263.986,346.041c12.915,0.106 12.908,0.187 13.288,0.441c4.1,2.746 -11.977,2.069 -13.632,1.918c-1.74,-0.159 -0.613,-0.937 0.344,-2.359Z" style="fill:#eaeaea;"/><path d="M629.281,554.317c-6.456,-0.417 -6.469,-1.204 -6.241,-1.668c0.891,-1.816 12.48,-0.951 12.573,-0.898c4.055,2.316 -5.785,2.553 -6.332,2.566Z" style="fill:#1a1b1a;"/><path d="M261.291,494.714c-1.365,1.455 -1.584,2.181 -6.092,0.3c-1.014,-0.423 -10.607,-3.933 -7.21,-5.256c0.977,-0.381 12.26,4.504 13.302,4.955Z" style="fill:#ececec;"/><path d="M176.247,504.969c-0.65,-0.321 -7.7,-3.805 -7.652,-4.865c0.161,-3.582 19.822,7.612 7.652,4.865Z" style="fill:#0c0c0c;"/><path d="M176.925,496.158c0.395,0.214 7.702,4.169 3.492,4.398c-2.775,0.151 -11.983,-5.989 -7.639,-6.142c0.36,-0.013 0.305,0.128 4.147,1.744Z" style="fill:#0d0d0d;"/><path d="M409.964,268.756c-2.579,3.345 -3.577,1.086 -4.813,-2.206c-0.691,-1.841 1.662,-3.499 2.304,-3.172c1.719,0.875 2.427,4.911 2.509,5.379Z" style="fill:#fafafa;"/><path d="M52.098,607.662c6.145,0.194 7.72,2.213 8.143,2.755c-4.355,0.741 -4.267,0.597 -8.666,0.377c-0.254,-0.013 -1.816,-0.232 0.523,-3.132Z" style="fill:#d2d2d2;"/><path d="M204.928,226.936c-1.27,-0.831 -1.26,-0.829 -1.372,-0.898c-1.946,-1.197 2.284,-2.005 2.54,-2.054c6.014,-1.149 6.477,-0.789 6.257,-0.339c-1.344,2.757 -6.778,3.234 -7.425,3.29Z" style="fill:#f4f4f4;"/><path d="M487.852,272.412c-3.971,-0.521 -4.063,-0.295 -4.282,-0.562c-2.088,-2.549 6.258,-2.593 7.369,-1.903c2.963,1.84 -2.773,2.433 -3.088,2.465Z" style="fill:#1c1c1b;"/><path d="M497.385,529.511c3.574,0.332 5.513,-0.914 4.67,1.826c-0.155,0.504 -1.305,0.534 -1.427,0.538c-0.467,0.012 -31.035,-1.349 -5.381,-2.28c0.713,-0.028 1.426,-0.056 2.138,-0.083Z" style="fill:#0e0e0e;"/><path d="M280.668,444.55c0.493,-0.192 0.114,-1.106 1.836,-0.715c0.364,0.083 0.263,0.161 0.619,0.272c3.989,1.241 4.744,-1.663 5.878,-0.104c0.393,0.54 0.516,4.927 -8.334,0.548Z" style="fill:#c2c3c3;"/><path d="M132.113,338.853c3.822,-0.166 3.727,-0.122 7.493,-0.003c0.38,0.883 0.76,1.766 1.14,2.649c-5.694,-1.361 -5.869,0.116 -7.622,-0.598c-0.705,-0.287 -0.305,-1.761 -1.01,-2.048Z" style="fill:#252525;"/><path d="M266.203,436.242c0.556,0.329 1.111,0.658 1.667,0.987c3.461,2.32 3.383,2.257 7.094,3.929c1.269,0.572 0.471,1.336 0.513,1.453c-0.733,-0.308 -7.881,-3.313 -9.115,-3.949c-1.383,-0.712 -0.859,-1.076 -0.159,-2.421Z" style="fill:#7f7f7f;"/><path d="M267.361,234.626c3.058,-2.683 4.583,-5.231 4.24,-2.452c-0.065,0.529 -2.169,4.364 -3.562,4.982c-4.692,2.083 -0.815,-2.372 -0.678,-2.53Z" style="fill:#d5d5d5;"/><path d="M326.829,617.275c1.045,3.576 -1.253,2.451 -4.982,2.458c-1.73,0.003 -1.646,-1.267 -0.107,-1.79c3.51,-1.192 3.514,-0.861 5.089,-0.668Z" style="fill:#d2d2d2;"/><path d="M484.315,471.13c-1.674,6.386 -4.126,-2.494 -2.028,-3.519c2.229,-1.09 2.023,3.476 2.028,3.519Z" style="fill:#161616;"/><path d="M158.918,403.249l-0.075,1.421c-0.547,0.23 -37.497,14.192 -7.288,1.375c0.58,-0.246 0.545,-0.207 7.363,-2.796Z" style="fill:#7d7e7e;"/><path d="M559.135,275.88c-4.793,2.481 -4.587,-0.237 -4.337,-0.481c2.511,-2.456 4.594,-2.982 4.337,0.481Z" style="fill:#ededed;"/><path d="M120.295,461.53c2.807,0.28 2.697,-0.689 5.573,-0.347c0.272,0.032 1.465,0.973 0.072,1.801c-2.685,1.596 -2.783,0.475 -5.749,-0.511l0.104,-0.943Z" style="fill:#7c7d7d;"/><path d="M506.074,255.306c-0.731,0.877 -1.461,1.753 -2.192,2.63c-2.433,-1.296 -2.675,-1.825 -2.791,-2.078c-0.167,-0.365 -0.098,-1.066 4.983,-0.551Z" style="fill:#dadada;"/><path d="M452.293,579.4c2.597,1.555 2.425,1.904 2.313,2.129c-0.227,0.46 -0.317,0.215 -3.151,0.276c0.279,-0.802 0.559,-1.604 0.838,-2.406Z" style="fill:#b1b2b1;"/><path d="M158.918,403.249c0.281,0.044 0.457,-0.471 0.738,-0.427c1.404,0.22 1.487,0.647 1.513,0.78c0.3,1.538 -0.88,0.404 -2.326,1.068l0.075,-1.421Z" style="fill:#6a6a69;"/><path d="M179.174,443.405c0.424,-0.013 0.719,-0.547 1.142,-0.559c3.326,-0.098 -0.463,1.791 -0.603,1.861l-0.54,-1.302Z" style="fill:#5c5d5d;"/><path d="M204.946,532.235l-0.74,0.752c-0.217,-0.74 -0.85,-0.143 -1.074,-0.908c-0.372,-1.265 0.492,0.042 1.814,0.156Z" style="fill:#525354;"/></g></g></svg>