<?xml version="1.0" encoding="UTF-8" standalone="no"?><!DOCTYPE svg PUBLIC "-//W3C//DTD SVG 1.1//EN" "http://www.w3.org/Graphics/SVG/1.1/DTD/svg11.dtd"><svg width="100%" height="100%" viewBox="0 0 20 19" version="1.1" xmlns="http://www.w3.org/2000/svg" xmlns:xlink="http://www.w3.org/1999/xlink" xml:space="preserve" xmlns:serif="http://www.serif.com/" style="fill-rule:evenodd;clip-rule:evenodd;stroke-linejoin:round;stroke-miterlimit:2;"><rect id="favicon-orange" x="-6.228" y="-6.497" width="32" height="32" style="fill:none;"/><path d="M13.006,11.97c-0.192,0.068 -0.391,0.12 -0.596,0.155l-3.004,-4.643l2.47,-2.707c0.376,0.01 0.738,0.076 1.079,0.19l3.095,-3.41l0.555,0.504l-2.936,3.234c0.566,0.337 1.034,0.82 1.353,1.398l4.336,-1.116l0.187,0.726l-4.227,1.088c0.043,0.14 0.078,0.284 0.104,0.431c0.038,0.213 0.058,0.432 0.058,0.656c0,0.358 -0.051,0.704 -0.146,1.032c-0.003,0.012 -0.007,0.023 -0.01,0.035l3.983,1.696l-0.294,0.69l-3.978,-1.694c-0.307,0.567 -0.758,1.046 -1.304,1.386l2.624,3.821l-0.618,0.424l-2.686,-3.912c-0.015,0.005 -0.03,0.011 -0.045,0.016Zm-1.824,-11.97l4.655,0l-6.717,7.362l7.235,11.182l-4.655,0l-5.174,-8.564l-2.796,2.973l0,5.591l-3.732,0l0,-18.544l3.732,0l0,8.235l7.451,-8.235Z" style="fill:#a43700;"/></svg>