<?xml version="1.0" encoding="UTF-8" standalone="no"?><!DOCTYPE svg PUBLIC "-//W3C//DTD SVG 1.1//EN" "http://www.w3.org/Graphics/SVG/1.1/DTD/svg11.dtd"><svg width="100%" height="100%" viewBox="0 0 32 32" version="1.1" xmlns="http://www.w3.org/2000/svg" xmlns:xlink="http://www.w3.org/1999/xlink" xml:space="preserve" xmlns:serif="http://www.serif.com/" style="fill-rule:evenodd;clip-rule:evenodd;stroke-linejoin:round;stroke-miterlimit:2;"><rect id="favicon-black" x="0" y="0" width="32" height="32" style="fill:none;"/><path d="M17.295,21.117c-0.721,0.276 -1.495,0.427 -2.284,0.427l-4.687,-5.96l4.887,-5.928c0.893,0.011 1.757,0.214 2.54,0.569l4.629,-5.801c0.164,-0.206 0.465,-0.24 0.671,-0.075l0.746,0.595c0.206,0.164 0.24,0.465 0.075,0.671l-4.512,5.654c0.46,0.409 0.859,0.883 1.176,1.407l6.858,-2.418c0.248,-0.088 0.521,0.043 0.609,0.291l0.317,0.9c0.088,0.248 -0.043,0.521 -0.291,0.609l-6.791,2.395c0.076,0.366 0.116,0.744 0.116,1.131c0,0.414 -0.048,0.817 -0.137,1.207l6.81,2.428c0.248,0.088 0.378,0.362 0.289,0.61l-0.32,0.899c-0.088,0.248 -0.362,0.378 -0.61,0.289l-6.912,-2.464c-0.393,0.618 -0.901,1.166 -1.488,1.619l4.55,5.622c0.166,0.205 0.134,0.505 -0.071,0.671l-0.742,0.6c-0.205,0.166 -0.505,0.134 -0.671,-0.071l-4.755,-5.876Zm-13.143,7.547c-0.133,-0 -0.26,-0.053 -0.353,-0.146c-0.094,-0.094 -0.146,-0.221 -0.146,-0.353l0,-24.329c-0,-0.133 0.053,-0.26 0.146,-0.353c0.094,-0.094 0.221,-0.146 0.353,-0.146l2.123,0c0.133,0 0.26,0.053 0.353,0.146c0.094,0.094 0.146,0.221 0.146,0.353l0,10.36l9.219,-10.687c0.095,-0.11 0.233,-0.173 0.378,-0.173l2.114,0c0.193,-0 0.369,0.111 0.452,0.286c0.083,0.175 0.057,0.381 -0.066,0.531l-9.081,11.051c-0.149,0.181 -0.152,0.442 -0.007,0.626l9.469,12.025c0.118,0.15 0.141,0.355 0.057,0.527c-0.084,0.172 -0.258,0.282 -0.45,0.282l-2.306,-0c-0.15,-0 -0.293,-0.068 -0.388,-0.184l-9.392,-11.543l-0,11.228c0,0.133 -0.053,0.26 -0.146,0.353c-0.094,0.094 -0.221,0.146 -0.353,0.146l-2.123,-0Z"/></svg>